<svg width="24" height="24" viewBox="0 0 24 24" fill="none" xmlns="http://www.w3.org/2000/svg">
<rect width="24" height="24" fill="white"/>
<path d="M19.0127 6.81375C19.0127 4.5 17.5352 2.625 15.7202 2.625C13.9052 2.625 12.4277 4.5 12.4277 6.81375C12.4277 8.62125 13.3315 10.1625 14.5952 10.7475V12.375C14.4958 12.375 14.4004 12.4145 14.3301 12.4848C14.2597 12.5552 14.2202 12.6505 14.2202 12.75V20.25C14.2202 20.5484 14.3388 20.8345 14.5497 21.0455C14.7607 21.2565 15.0469 21.375 15.3452 21.375H16.0952C16.3936 21.375 16.6798 21.2565 16.8907 21.0455C17.1017 20.8345 17.2202 20.5484 17.2202 20.25V12.75C17.2202 12.6505 17.1807 12.5552 17.1104 12.4848C17.0401 12.4145 16.9447 12.375 16.8452 12.375V10.7587C18.1052 10.1625 19.0127 8.625 19.0127 6.81375ZM16.4702 20.25C16.4702 20.3495 16.4307 20.4448 16.3604 20.5152C16.2901 20.5855 16.1947 20.625 16.0952 20.625H15.3452C15.2458 20.625 15.1504 20.5855 15.0801 20.5152C15.0097 20.4448 14.9702 20.3495 14.9702 20.25V13.125H16.4702V20.25ZM16.0952 12.375H15.3452V10.9762C15.4693 10.9959 15.5946 11.0059 15.7202 11.0063C15.8458 11.0056 15.9712 10.9956 16.0952 10.9762V12.375ZM15.7202 10.2563C14.3177 10.2563 13.1777 8.71125 13.1777 6.81375C13.1777 4.91625 14.3177 3.375 15.7202 3.375C17.1227 3.375 18.2627 4.91625 18.2627 6.81375C18.2627 8.71125 17.119 10.2563 15.7202 10.2563Z" fill="#C4C4C4"/>
<path d="M11.7373 7.5V3.9375C11.7373 3.68886 11.6385 3.4504 11.4627 3.27459C11.2869 3.09877 11.0484 3 10.7998 3C10.5512 3 10.3127 3.09877 10.1369 3.27459C9.96108 3.4504 9.8623 3.68886 9.8623 3.9375V7.125H9.2998V3.9375C9.2998 3.68886 9.20103 3.4504 9.02522 3.27459C8.8494 3.09877 8.61094 3 8.3623 3C8.11366 3 7.87521 3.09877 7.69939 3.27459C7.52358 3.4504 7.4248 3.68886 7.4248 3.9375V7.125H6.8623V3.9375C6.8623 3.68886 6.76353 3.4504 6.58772 3.27459C6.4119 3.09877 6.17345 3 5.9248 3C5.67616 3 5.43771 3.09877 5.26189 3.27459C5.08608 3.4504 4.9873 3.68886 4.9873 3.9375V7.5C5.02236 8.19911 5.25143 8.87464 5.64884 9.45088C6.04625 10.0271 6.59628 10.4813 7.2373 10.7625C7.23549 10.7837 7.23549 10.805 7.2373 10.8263V12.375C7.13785 12.375 7.04247 12.4145 6.97214 12.4848C6.90181 12.5552 6.8623 12.6505 6.8623 12.75V20.25C6.8623 20.5484 6.98083 20.8345 7.19181 21.0455C7.40279 21.2565 7.68894 21.375 7.9873 21.375H8.7373C9.03567 21.375 9.32182 21.2565 9.5328 21.0455C9.74378 20.8345 9.8623 20.5484 9.8623 20.25V12.75C9.8623 12.6505 9.8228 12.5552 9.75247 12.4848C9.68214 12.4145 9.58676 12.375 9.4873 12.375V10.8263C9.48911 10.805 9.48911 10.7837 9.4873 10.7625C10.1296 10.4831 10.6808 10.0294 11.0785 9.45276C11.4762 8.87614 11.7044 8.19967 11.7373 7.5ZM9.1123 20.25C9.1123 20.3495 9.0728 20.4448 9.00247 20.5152C8.93214 20.5855 8.83676 20.625 8.7373 20.625H7.9873C7.88785 20.625 7.79247 20.5855 7.72214 20.5152C7.65181 20.4448 7.6123 20.3495 7.6123 20.25V13.125H9.1123V20.25ZM8.7373 12.375H7.9873V10.9763C8.11161 10.9935 8.23683 11.0036 8.3623 11.0063C8.4878 11.0039 8.61303 10.9938 8.7373 10.9763V12.375ZM8.3623 10.2563C7.0648 10.2563 5.7373 8.865 5.7373 7.5V3.9375C5.7373 3.88777 5.75706 3.84008 5.79222 3.80492C5.82739 3.76975 5.87508 3.75 5.9248 3.75C5.97453 3.75 6.02222 3.76975 6.05739 3.80492C6.09255 3.84008 6.1123 3.88777 6.1123 3.9375V7.5C6.1123 7.59946 6.15181 7.69484 6.22214 7.76517C6.29247 7.83549 6.38785 7.875 6.4873 7.875H7.7998C7.89926 7.875 7.99464 7.83549 8.06497 7.76517C8.1353 7.69484 8.1748 7.59946 8.1748 7.5V3.9375C8.1748 3.88777 8.19456 3.84008 8.22972 3.80492C8.26489 3.76975 8.31258 3.75 8.3623 3.75C8.41203 3.75 8.45972 3.76975 8.49489 3.80492C8.53005 3.84008 8.5498 3.88777 8.5498 3.9375V7.5C8.5498 7.59946 8.58931 7.69484 8.65964 7.76517C8.72997 7.83549 8.82535 7.875 8.9248 7.875H10.2373C10.3368 7.875 10.4321 7.83549 10.5025 7.76517C10.5728 7.69484 10.6123 7.59946 10.6123 7.5V3.9375C10.6123 3.88777 10.6321 3.84008 10.6672 3.80492C10.7024 3.76975 10.7501 3.75 10.7998 3.75C10.8495 3.75 10.8972 3.76975 10.9324 3.80492C10.9676 3.84008 10.9873 3.88777 10.9873 3.9375V7.5C10.9873 8.865 9.66355 10.2563 8.3623 10.2563Z" fill="#C4C4C4"/>
</svg>
