<svg width="25" height="24" viewBox="0 0 25 24" fill="none" xmlns="http://www.w3.org/2000/svg">
<path d="M8.5 22.3199C8.22 22.3199 7.92998 22.2499 7.66998 22.1099C7.09998 21.8099 6.75 21.2099 6.75 20.5699V19.15C3.73 18.84 1.75 16.6199 1.75 13.4399V7.43994C1.75 3.99994 4.06 1.68994 7.5 1.68994H17.5C20.94 1.68994 23.25 3.99994 23.25 7.43994V13.4399C23.25 16.8799 20.94 19.1899 17.5 19.1899H13.73L9.46997 22.03C9.17997 22.22 8.84 22.3199 8.5 22.3199ZM7.5 3.17993C4.92 3.17993 3.25 4.84993 3.25 7.42993V13.43C3.25 16.01 4.92 17.68 7.5 17.68C7.91 17.68 8.25 18.02 8.25 18.43V20.56C8.25 20.69 8.33 20.75 8.38 20.78C8.43001 20.81 8.53001 20.84 8.64001 20.77L13.09 17.81C13.21 17.73 13.36 17.68 13.51 17.68H17.51C20.09 17.68 21.76 16.01 21.76 13.43V7.42993C21.76 4.84993 20.09 3.17993 17.51 3.17993H7.5Z" fill="#E3E3E3"/>
<path d="M12.4998 12.11C12.0898 12.11 11.7498 11.77 11.7498 11.36V11.15C11.7498 9.99002 12.5998 9.42001 12.9198 9.20001C13.2898 8.95001 13.4098 8.78002 13.4098 8.52002C13.4098 8.02002 12.9998 7.60999 12.4998 7.60999C11.9998 7.60999 11.5898 8.02002 11.5898 8.52002C11.5898 8.93002 11.2498 9.27002 10.8398 9.27002C10.4298 9.27002 10.0898 8.93002 10.0898 8.52002C10.0898 7.19002 11.1698 6.10999 12.4998 6.10999C13.8298 6.10999 14.9098 7.19002 14.9098 8.52002C14.9098 9.66002 14.0698 10.23 13.7598 10.44C13.3698 10.7 13.2498 10.87 13.2498 11.15V11.36C13.2498 11.78 12.9098 12.11 12.4998 12.11Z" fill="#E3E3E3"/>
<path d="M12.5 14.6C12.08 14.6 11.75 14.26 11.75 13.85C11.75 13.44 12.09 13.1 12.5 13.1C12.91 13.1 13.25 13.44 13.25 13.85C13.25 14.26 12.92 14.6 12.5 14.6Z" fill="#E3E3E3"/>
</svg>
