<svg width="46" height="46" viewBox="0 0 46 46" fill="none" xmlns="http://www.w3.org/2000/svg">
<path d="M17.5223 9.62154L9.62152 17.5223C6.18969 20.9541 6.18969 25.0459 9.62152 28.4777L17.5128 36.369C20.9541 39.8103 25.0459 39.8103 28.4777 36.3785L36.369 28.4871C39.8008 25.0553 39.8008 20.9635 36.369 17.5317L28.4683 9.63097C25.0459 6.18971 20.9541 6.18971 17.5223 9.62154ZM27.4783 19.9359L24.4142 23L27.4783 26.0641C27.8649 26.4507 27.8649 27.0918 27.4783 27.4783C27.0918 27.8649 26.4507 27.8649 26.0641 27.4783L23 24.4142L19.9359 27.4783C19.5493 27.8649 18.9082 27.8649 18.5216 27.4783C18.1351 27.0918 18.1351 26.4507 18.5216 26.0641L21.5858 23L18.5216 19.9359C18.1351 19.5493 18.1351 18.9082 18.5216 18.5217C18.9082 18.1351 19.5493 18.1351 19.9359 18.5217L23 21.5858L26.0641 18.5217C26.4507 18.1351 27.0918 18.1351 27.4783 18.5217C27.8649 18.9082 27.8649 19.5493 27.4783 19.9359Z" fill="#FDBE32"/>
</svg>
