<svg version="1.2" xmlns="http://www.w3.org/2000/svg" viewBox="0 0 119 112" width="119" height="112"><defs><linearGradient id="P" gradientUnits="userSpaceOnUse"/><radialGradient id="g1" cx="49.1" cy="43.9" r="100.4" href="#P"><stop stop-opacity="1"/><stop offset="1" stop-opacity=".9"/></radialGradient><linearGradient id="g2" x1="56.3" y1=".4" x2="56.3" y2="61" href="#P"><stop stop-color="#fff" stop-opacity="1"/><stop offset="1" stop-color="#fff" stop-opacity="0"/></linearGradient></defs><style>tspan{white-space:pre}.a{fill:url(#g1)}.b{fill:url(#g2)}.c{fill:#f60}.d{font-size: 96px;fill: #000000;font-family: "sans"}</style><path class="a" d="m55.7 0c-30.9 0-55.9 24.9-55.9 55.6 0 30.7 25 55.6 55.9 55.6 10.1 0 19.5-2.7 27.7-7.3l2.9 7.3h22.5l-8.8-21.8c7.2-9.4 11.5-21.1 11.5-33.8 0-30.7-25-55.6-55.8-55.6z"/><path class="b" d="m55.2 63.1c-20.6 0-37.2-14.2-37.2-31.8 0-17.5 16.6-31.7 37.2-31.7 20.6 0 37.2 14.2 37.2 31.7 0 17.6-16.6 31.8-37.2 31.8z"/><path  d="m61.4 28.7c-3.7 0-6.6-3-6.6-6.6 0-3.6 2.9-6.6 6.6-6.6 3.6 0 6.5 3 6.5 6.6 0 3.6-2.9 6.6-6.5 6.6z"/><path  d="m49 26.1l37.3 5.4-1.1 5.4-37.2-5.4z"/><path  d="m82.7 33.1h6.6v2.9h-6.6z"/><path fill-rule="evenodd" class="c" d="m40.7 9.1q0 0.1 0 0.2-0.1-0.1-0.2-0.2zm0 0.2c1.6 1.4 1.4 0.8 3.8 0.5 2.8-1.8 4.2 4.4 5.3 0.9 3.5 0.5 7.2 1.6 10.5 2.7 3.4 0.8 6.5 2.7 8.7 5.3h-0.1l1.7 2.2q0.3 0.5 0.5 1.1c0.7 5.6 6.9 5.6 11.1 7.6 3.6 1.3 7.9 3.2 8.3 7.5-0.9-0.2-4.4-4.3-7.1-4.7-1.7-0.1-3.4-0.6-5.1-1.2l-9.6-1.8q-0.7-0.1-1.4-0.2l-13.6-1.7c0.2 0.2 0.4 0.4 0.6 0.6l14 2.7 1 0.2 3.9 0.9c0.8 0.1 1.6 0.2 2.2 0.3 4 1.1 8.7 0.9 12 3.7-0.8 1.6-5.6 0.7-8 0.5q-0.4-0.1-0.9-0.2-0.1 0-0.2 0c-3.2-0.5-6.5-0.5-9.6 0.4q-0.1 0-0.1 0-1.6 0.5-3.1 1.4c-4.5 2.6-10.1 3.6-13.8 7.4-3.7 3.9-3.4 9.3-2.8 14.4h0.2v1.2q0 0.7 0.1 1.4c2 10.2 7 19.5 8.6 29.8 0.3 3.9 0.9 9 1.4 12.2-1.4-0.5-2.2-6.9-2.5-4.7-4.9-8.5-10.4-16.8-16.6-24.4-3.9-4.7-7.9-9.7-12.6-13.5-3.2-2.5-2.2-7.2-2.5-10.7-1.1-4.3-0.4-8.6 0.3-12.9 1.5-4.6 1.9-9.2 3.9-13.5 3.1-2.7 3.1-7.6 6.1-10 0.4 0.3 0.7 0.4 0.9 0.5h0.3 0.1c0.4-0.4-4.2-5.2 0.1-3.3 0.1-2.4 3.7-0.7 4-2.6zm14.9 11.6c-0.5 1.5 1.3 3.5 4 4.5 2.8 0.9 5.5 0.5 6-1.1 0.5-1.5-1.3-3.5-4-4.5-1.1-0.3-2.1-0.5-3-0.5-1.5 0.1-2.7 0.6-3 1.6z"/><text style="transform:matrix(1,0,0,1,122.594,110.474)" ><tspan x="0" y="0" class="d">EMU
</tspan></text></svg>