<svg width="56" height="56" viewBox="0 0 56 56" fill="none" xmlns="http://www.w3.org/2000/svg">
<rect width="56" height="56" rx="28" fill="#424242"/>
<path d="M27.9997 45.9167C18.1163 45.9167 10.083 37.8834 10.083 28C10.083 18.1167 18.1163 10.0834 27.9997 10.0834C37.883 10.0834 45.9163 18.1167 45.9163 28C45.9163 37.8834 37.883 45.9167 27.9997 45.9167ZM27.9997 12.5834C19.4997 12.5834 12.583 19.5 12.583 28C12.583 36.5 19.4997 43.4167 27.9997 43.4167C36.4997 43.4167 43.4163 36.5 43.4163 28C43.4163 19.5 36.4997 12.5834 27.9997 12.5834Z" fill="#FDBE32"/>
<path d="M33.833 29.25H23.833C23.1497 29.25 22.583 28.6833 22.583 28C22.583 27.3167 23.1497 26.75 23.833 26.75H33.833C34.5163 26.75 35.083 27.3167 35.083 28C35.083 28.6833 34.5163 29.25 33.833 29.25Z" fill="#FDBE32"/>
<path d="M27.1667 34.25C26.8501 34.25 26.5334 34.1333 26.2834 33.8833L21.2834 28.8833C20.8001 28.4 20.8001 27.6 21.2834 27.1166L26.2834 22.1167C26.7667 21.6333 27.5667 21.6333 28.0501 22.1167C28.5334 22.6 28.5334 23.4 28.0501 23.8833L23.9334 28L28.0501 32.1166C28.5334 32.6 28.5334 33.4 28.0501 33.8833C27.8001 34.1333 27.4834 34.25 27.1667 34.25Z" fill="#FDBE32"/>
</svg>
