<svg width="48" height="48" viewBox="0 0 48 48" fill="none" xmlns="http://www.w3.org/2000/svg">
<g id="2993682_brand_brands_linux_logo_logos_icon 1">
<g id="Group">
<path id="Vector" d="M39.3623 36.0674C39.7988 35.1309 40 33.8184 40 32C40 25.5068 37.0088 21.7607 34.6055 18.75C33.1504 16.9268 32 15.4863 32 14L32.002 13.5342C32.0176 10.7734 32.0498 5.02734 28.998 1.95801C27.7061 0.65918 26.0244 0 24 0C19.7988 0 17 2.04102 17 12C17 14.7412 15.8467 16.9863 14.626 19.3633C14.0908 20.4053 13.5371 21.4834 13.0732 22.623C12.1494 24.8945 10 30.4541 10 33C10 33.1621 10.0391 33.3213 10.1143 33.4648L17.1924 46.9619C17.3447 47.252 17.6348 47.4414 17.96 47.4824C18 47.4873 18.04 47.4902 18.0801 47.4902C18.3643 47.4902 18.6426 47.3652 18.834 47.1514C19.2783 46.6562 22.2236 46 24 46H30.7842C31.0449 46 31.2949 45.8984 31.4814 45.7168L39.6973 37.7168C40.0938 37.3311 40.1016 36.6982 39.7168 36.3027C39.6133 36.1963 39.4922 36.1182 39.3623 36.0674Z" fill="#1A1A1A"/>
<path id="Vector_2" opacity="0.2" d="M14.626 19.8633C15.8467 17.4863 17 15.2412 17 12.5C17 2.54102 19.7988 0.5 24 0.5C26.0244 0.5 27.7061 1.15918 28.998 2.45801C31.6655 5.14075 31.9767 9.8678 32.0023 12.8596C32.004 9.92529 31.8287 4.80505 28.998 1.95801C27.7061 0.65918 26.0244 0 24 0C19.7988 0 17 2.04102 17 12C17 14.7412 15.8467 16.9863 14.626 19.3633C14.0908 20.4053 13.5371 21.4834 13.0732 22.623C12.1494 24.8945 10 30.4541 10 33C10 33.0455 10.026 33.0857 10.0321 33.1305C10.2015 30.4583 12.1888 25.2977 13.0732 23.123C13.5371 21.9834 14.0908 20.9053 14.626 19.8633Z" fill="white"/>
<path id="Vector_3" d="M39.7178 36.8027C39.8418 36.9303 39.91 37.0848 39.9526 37.2455C40.036 36.9191 39.9696 36.5616 39.7178 36.3027C39.6572 36.2405 39.5813 36.2081 39.5106 36.1652C39.4618 36.2997 39.4199 36.4458 39.3633 36.5674C39.4932 36.6182 39.6143 36.6963 39.7178 36.8027Z" fill="#0099D8"/>
<path id="Vector_4" opacity="0.2" d="M32 14.5C32 15.9863 33.1504 17.4268 34.6055 19.25C36.9865 22.2328 39.9354 25.9458 39.9901 32.3286C39.9918 32.2152 40 32.1176 40 32C40 25.5068 37.0088 21.7607 34.6055 18.75C33.1539 16.9312 32.0076 15.4932 32.002 14.0107C32.002 14.0177 32.002 14.0272 32.002 14.0342L32 14.5Z" fill="white"/>
<path id="Vector_5" d="M32 14L32.002 14.0107C32.0039 13.6681 32.0059 13.2821 32.0023 12.8596C32.0022 13.0887 32.0031 13.3342 32.002 13.5342L32 14Z" fill="#0099D8"/>
<g id="Group_2">
<path id="Vector_6" d="M32.2583 33.6235C32.2344 28.7542 31.5728 23.2769 27.725 15.4117C25.8208 16.6992 22.3253 17.7176 21.9054 17.7176C21.1483 17.7176 19.4954 17.1772 18.2809 16.1051C17.7816 17.578 17.0905 18.9418 16.4048 20.2773C15.8892 21.2803 15.356 22.3183 14.9263 23.3769C13.7175 26.3467 12.3372 30.2562 12.0586 32.3338C12.9045 32.8976 13.4945 34.1175 14.146 35.4804C14.8208 36.8926 15.5854 38.4931 16.5708 39.1797C18.3739 40.435 19.3087 42.2257 19.5537 43.8528C20.2399 43.921 21.1047 43.9804 22.0874 43.9804C24.5272 43.9804 27.835 43.485 30.2819 42C30.4192 39.3545 30.8838 35.1111 32.2583 33.6235Z" fill="white"/>
</g>
<path id="Vector_7" d="M39.9911 32.3286C39.9666 33.9686 39.7716 35.1914 39.3633 36.0674C39.4172 36.0885 39.4603 36.1345 39.5106 36.1652C39.8378 35.2634 40.001 34.0824 40.001 32.5C40.001 32.4398 39.9916 32.3883 39.9911 32.3286Z" fill="#0099D8"/>
<path id="Vector_8" opacity="0.1" d="M19.5534 43.8528C20.2396 43.921 21.1044 43.9805 22.0871 43.9805C24.5269 43.9805 27.8347 43.485 30.2816 42V41.5C27.8347 42.985 24.5269 43.4805 22.0871 43.4805C21.1044 43.4805 20.0885 43.412 19.4023 43.3438" fill="black"/>
<path id="Vector_9" opacity="0.3" d="M31.4873 45.2168C31.3008 45.3984 31.0508 45.5 30.79 45.5H24.0059C22.2295 45.5 19.2842 46.1562 18.8398 46.6514C18.6484 46.8652 18.3701 46.9902 18.0859 46.9902C18.0459 46.9902 18.0059 46.9873 17.9658 46.9824C17.6406 46.9414 17.3506 46.752 17.1982 46.4619L10.1201 32.9648C10.066 32.8616 10.0536 32.7451 10.038 32.6305C10.0304 32.7495 10.0059 32.8915 10.0059 33C10.0059 33.1621 10.0449 33.3213 10.1201 33.4648L17.1982 46.9619C17.3506 47.252 17.6406 47.4414 17.9658 47.4824C18.0059 47.4873 18.0459 47.4902 18.0859 47.4902C18.3701 47.4902 18.6484 47.3652 18.8398 47.1514C19.2842 46.6562 22.2295 46 24.0059 46H30.79C31.0508 46 31.3008 45.8984 31.4873 45.7168L39.7031 37.7168C39.9718 37.4554 40.047 37.083 39.9575 36.7455C39.9134 36.9177 39.8401 37.0836 39.7031 37.2168L31.4873 45.2168Z" fill="black"/>
<path id="Vector_10" d="M41.8522 38.1484C41.4381 37.877 41.0094 37.5957 40.7067 37.293C40.5299 37.1162 40.611 36.2988 40.6539 35.8594C40.737 35.0156 40.8229 34.1445 40.2555 33.5186C40.0416 33.2822 39.6491 33 38.9996 33C38.4645 33 38.0739 33.4238 38.0504 33.958C38.0498 33.9725 38.0558 33.9856 38.0558 34H33.9997C33.9997 33.4473 33.5524 33 32.9997 33C30.0338 33 29.9997 43.8896 29.9879 44.1279C29.9323 44.7246 29.8014 46.124 30.6969 47.1064C31.237 47.6992 32.0114 48 32.9997 48C35.5954 48 36.8541 46.6621 38.0709 45.3691C38.276 45.1504 38.486 44.9277 38.7067 44.707C39.2135 44.2002 40.2047 43.8389 41.0797 43.5195C42.5153 42.9951 43.9996 42.4531 43.9996 41C43.9996 39.5576 42.8092 38.7764 41.8522 38.1484Z" fill="#FDB515"/>
<path id="Vector_11" d="M16.5713 39.1797C15.5859 38.4932 14.8213 36.8926 14.1465 35.4805C13.2539 33.6133 12.4824 32 11 32C9.12891 32 8.71973 33.6816 8.50098 34.585C8.44043 34.834 8.34863 35.209 8.33984 35.2529C8.19141 35.3447 7.63281 35.4551 7.26367 35.5283C6.04297 35.7705 4 36.1748 4 38C4 38.5312 4.0791 38.9824 4.16602 39.4521C4.32031 40.2842 4.46582 41.0693 4.03223 42.75C4.01074 42.8311 4 42.916 4 43C4 45.4043 7.73438 45.7158 9.96582 45.9014C10.3369 45.9326 10.6455 45.9561 10.8438 45.9873C11.1514 46.0361 11.7959 46.333 12.4189 46.6201C13.752 47.2354 15.4111 48 17 48C18.1426 48 19.0566 47.2617 19.4453 46.0254C20.0498 44.0986 19.249 41.0439 16.5713 39.1797Z" fill="#FDB515"/>
<path id="Vector_12" opacity="0.2" d="M7.10657 36.0283C7.4884 35.9551 8.06641 35.8447 8.21997 35.7529C8.229 35.709 8.32397 35.334 8.3866 35.085C8.61292 34.1816 9.03625 32.5 10.972 32.5C12.5057 32.5 13.304 34.1133 14.2274 35.9805C14.9255 37.3926 15.7167 38.9932 16.7361 39.6797C17.7516 40.363 18.5009 41.2078 19.0186 42.0968C18.5251 41.0272 17.7355 39.9899 16.5717 39.1797C15.5863 38.4932 14.8217 36.8926 14.1469 35.4805C13.2543 33.6133 12.4828 32 11.0004 32C9.12927 32 8.72009 33.6816 8.50134 34.585C8.4408 34.834 8.349 35.209 8.34021 35.2529C8.19177 35.3447 7.63318 35.4551 7.26404 35.5283C6.20386 35.7386 4.52722 36.0739 4.10352 37.3535C4.76599 36.4801 6.16907 36.2081 7.10657 36.0283Z" fill="white"/>
<path id="Vector_13" d="M38.9998 31C38.8082 31 38.6395 31.0681 38.4874 31.1614L31.8102 20.235C31.081 18.1749 30.1483 15.9896 28.8885 13.542C28.6366 13.0527 28.034 12.8584 27.5418 13.1104C27.0516 13.3633 26.8582 13.9668 27.1112 14.458C31.6258 23.2314 31.9998 28.708 32.0018 33.9443C31.9901 34.1543 31.9188 36.0273 32.9959 37.167C33.5116 37.7119 34.2039 38 34.9998 38L35.3524 38.002C35.4647 38.0029 35.578 38.0039 35.6932 38.0039C36.7098 38.0039 37.8094 37.9268 38.6698 37.0732C39.5897 36.1611 39.9998 34.5967 39.9998 32C39.9998 31.4473 39.5526 31 38.9998 31Z" fill="#1A1A1A"/>
<path id="Vector_14" opacity="0.3" d="M38.6693 36.5732C37.809 37.4268 36.7094 37.5039 35.6928 37.5039C35.5775 37.5039 35.4642 37.5029 35.3519 37.502L34.9994 37.5C34.2035 37.5 33.5111 37.2119 32.9955 36.667C32.189 35.8137 32.0264 34.5498 32.0005 33.8801C32.0005 33.9014 32.0013 33.9231 32.0013 33.9443C31.9896 34.1543 31.9183 36.0273 32.9955 37.167C33.5111 37.7119 34.2035 38 34.9994 38L35.3519 38.002C35.4642 38.0029 35.5775 38.0039 35.6928 38.0039C36.7094 38.0039 37.809 37.9268 38.6693 37.0732C39.5892 36.1611 39.9994 34.5967 39.9994 32C39.9994 31.9679 39.984 31.9408 39.9811 31.9094C39.9358 34.243 39.5358 35.7142 38.6693 36.5732Z" fill="black"/>
<path id="Vector_15" d="M26 6.08301C24.8408 6.08301 24 7.32715 24 9.04199C24 10.7559 24.8408 12 26 12C27.1592 12 28 10.7559 28 9.04199C28 7.32715 27.1592 6.08301 26 6.08301Z" fill="white"/>
<path id="Vector_16" d="M26.0009 11.5529C26.5019 11.5529 26.908 10.7576 26.908 9.77647C26.908 8.79535 26.5019 8 26.0009 8C25.4999 8 25.0938 8.79535 25.0938 9.77647C25.0938 10.7576 25.4999 11.5529 26.0009 11.5529Z" fill="black"/>
<path id="Vector_17" d="M20 6.08301C18.8408 6.08301 18 7.32715 18 9.04199C18 10.7559 18.8408 12 20 12C21.1592 12 22 10.7559 22 9.04199C22 7.32715 21.1592 6.08301 20 6.08301Z" fill="white"/>
<path id="Vector_18" d="M27.6036 15.485C25.6775 16.7368 22.3175 17.7177 21.9058 17.7177C21.1487 17.7177 19.4957 17.1772 18.2812 16.1051L31.8444 29.6682C31.5223 25.7961 30.5068 21.3915 27.6036 15.485Z" fill="url(#paint0_linear_578_4189)"/>
<path id="Vector_19" d="M20.0004 11.4824C20.4915 11.4824 20.8895 10.7028 20.8895 9.74118C20.8895 8.77955 20.4915 8 20.0004 8C19.5094 8 19.1113 8.77955 19.1113 9.74118C19.1113 10.7028 19.5094 11.4824 20.0004 11.4824Z" fill="black"/>
<path id="Vector_20" d="M23.1963 10.0195C23.1318 10.0068 23.0654 10 23 10C20.8496 10 17 12.0166 17 14C17 15.874 20.7822 18 22 18C22.5908 18 29 15.7744 29 14C29 11.3838 24.5576 10.292 23.1963 10.0195Z" fill="#FDB515"/>
<path id="Vector_21" d="M23.1963 10.0195C23.1318 10.0068 23.0654 10 23 10C20.8496 10 17 12.0166 17 14C17 15.874 20.7822 18 22 18C22.5908 18 29 15.7744 29 14C29 11.3838 24.5576 10.292 23.1963 10.0195Z" fill="#FDB515"/>
<path id="Vector_22" opacity="0.1" d="M41.0805 43.0195C40.2055 43.3389 39.2143 43.7002 38.7075 44.207C38.4868 44.4277 38.2768 44.6504 38.0717 44.8691C36.855 46.1621 35.5962 47.5 33.0005 47.5C32.0122 47.5 31.2378 47.1992 30.6977 46.6064C30.1114 45.9633 29.9796 45.1571 29.9641 44.4988C29.9209 45.1896 29.9456 46.2814 30.6977 47.1064C31.2378 47.6992 32.0122 48 33.0005 48C35.5962 48 36.855 46.6621 38.0717 45.3691C38.2768 45.1504 38.4868 44.9277 38.7075 44.707C39.2143 44.2002 40.2055 43.8389 41.0805 43.5195C42.5161 42.9951 44.0005 42.4531 44.0005 41C44.0005 40.9275 43.9659 40.8751 43.9601 40.8059C43.7601 42.0258 42.4072 42.5349 41.0805 43.0195Z" fill="black"/>
<path id="Vector_23" opacity="0.1" d="M19.4453 45.5254C19.0566 46.7617 18.1426 47.5 17 47.5C15.4111 47.5 13.752 46.7354 12.4189 46.1201C11.7959 45.833 11.1514 45.5361 10.8438 45.4873C10.6455 45.4561 10.3369 45.4326 9.96582 45.4014C7.80481 45.2217 4.26489 44.9062 4.04163 42.7039C4.03723 42.7212 4.03674 42.7325 4.03223 42.75C4.01074 42.8311 4 42.916 4 43C4 45.4043 7.73438 45.7158 9.96582 45.9014C10.3369 45.9326 10.6455 45.9561 10.8438 45.9873C11.1514 46.0361 11.7959 46.333 12.4189 46.6201C13.752 47.2354 15.4111 48 17 48C18.1426 48 19.0566 47.2617 19.4453 46.0254C19.6034 45.5215 19.6593 44.9386 19.6167 44.3219C19.6058 44.7501 19.5593 45.1619 19.4453 45.5254Z" fill="black"/>
<path id="Vector_24" opacity="0.1" d="M21.9781 17.5C20.8572 17.5 17.6356 15.7375 17.0027 13.988C17.0027 13.9921 17 13.996 17 14C17 15.874 20.7822 18 22 18C22.5908 18 29 15.7744 29 14C29 13.9613 28.979 13.9302 28.9771 13.8921C28.028 15.6027 22.5297 17.5 21.9781 17.5Z" fill="black"/>
<path id="Vector_25" d="M41.8525 38.1484C41.4385 37.877 41.0098 37.5957 40.707 37.293C40.5303 37.1162 40.6113 36.2988 40.6543 35.8594C40.7373 35.0156 40.8232 34.1445 40.2559 33.5186C40.1833 33.4384 40.0676 33.3632 39.9424 33.2926C39.8167 35.1134 39.4209 36.3286 38.6699 37.0732C37.8096 37.9268 36.71 38.0039 35.6934 38.0039C35.5781 38.0039 35.4648 38.0029 35.3525 38.002L35 38C34.2041 38 33.5117 37.7119 32.9961 37.167L39.8376 44.0085C40.2369 43.8298 40.67 43.6692 41.0801 43.5195C42.5156 42.9951 44 42.4531 44 41C44 39.5576 42.8096 38.7764 41.8525 38.1484Z" fill="url(#paint1_linear_578_4189)"/>
<path id="Vector_26" d="M41.8525 38.1484C41.4385 37.877 41.0098 37.5957 40.707 37.293C40.5303 37.1162 40.6113 36.2988 40.6543 35.8594C40.7373 35.0156 40.8232 34.1445 40.2559 33.5186C40.1875 33.4431 40.0664 33.3704 39.9591 33.2963C39.986 32.8951 40 32.4651 40 32C40 25.5068 37.0088 21.7607 34.6055 18.75C33.1504 16.9268 32 15.4863 32 14L32.002 13.5342C32.0176 10.7734 32.0498 5.02734 28.998 1.95801C27.7061 0.65918 26.0244 0 24 0C19.7988 0 17 2.04102 17 12C17 14.7412 15.8467 16.9863 14.626 19.3633C14.0908 20.4053 13.5371 21.4834 13.0732 22.623C12.2357 24.6824 10.4076 29.4215 10.0703 32.1902C8.98938 32.645 8.67676 33.8593 8.50098 34.585C8.44043 34.834 8.34863 35.209 8.33984 35.2529C8.19141 35.3447 7.63281 35.4551 7.26367 35.5283C6.04297 35.7705 4 36.1748 4 38C4 38.5312 4.0791 38.9824 4.16602 39.4521C4.32031 40.2842 4.46582 41.0693 4.03223 42.75C4.01074 42.8311 4 42.916 4 43C4 45.4043 7.73438 45.7158 9.96582 45.9014C10.3369 45.9326 10.6455 45.9561 10.8438 45.9873C11.1514 46.0361 11.7959 46.333 12.4189 46.6201C13.752 47.2354 15.4111 48 17 48C17.6838 48 18.2675 47.7091 18.7239 47.2317C18.7588 47.202 18.8032 47.1858 18.834 47.1514C19.2783 46.6562 22.2236 46 24 46H30.1213C30.2316 46.3855 30.3904 46.7698 30.6973 47.1064C31.2373 47.6992 32.0117 48 33 48C35.5957 48 36.8545 46.6621 38.0713 45.3691C38.2764 45.1504 38.4863 44.9277 38.707 44.707C39.2139 44.2002 40.2051 43.8389 41.0801 43.5195C42.5156 42.9951 44 42.4531 44 41C44 39.5576 42.8096 38.7764 41.8525 38.1484Z" fill="url(#paint2_linear_578_4189)"/>
</g>
</g>
<defs>
<linearGradient id="paint0_linear_578_4189" x1="20.7669" y1="13.6195" x2="34.33" y2="27.1826" gradientUnits="userSpaceOnUse">
<stop stop-opacity="0.1"/>
<stop offset="1" stop-opacity="0"/>
</linearGradient>
<linearGradient id="paint1_linear_578_4189" x1="35.723" y1="34.4401" x2="43.5175" y2="42.2346" gradientUnits="userSpaceOnUse">
<stop stop-opacity="0.1"/>
<stop offset="1" stop-opacity="0"/>
</linearGradient>
<linearGradient id="paint2_linear_578_4189" x1="10.4901" y1="20.1193" x2="46.1713" y2="36.7577" gradientUnits="userSpaceOnUse">
<stop stop-color="white" stop-opacity="0.2"/>
<stop offset="1" stop-color="white" stop-opacity="0"/>
</linearGradient>
</defs>
</svg>
