<svg width="41" height="34" viewBox="0 0 41 34" fill="none" xmlns="http://www.w3.org/2000/svg">
<path d="M4.27051 34.1666C5.97884 34.1666 7.68717 32.7999 7.68717 30.7499C7.68717 28.6999 7.68717 22.7776 7.68717 18.7916C7.68717 12.8124 12.983 6.83325 20.4997 6.83325" stroke="#808080" stroke-linecap="round"/>
<path d="M36.7292 34.1666C35.0208 34.1666 33.3125 32.7999 33.3125 30.7499V18.7916C33.3125 12.8124 28.0167 6.83325 20.5 6.83325" stroke="#808080" stroke-linecap="round"/>
<path d="M20.4997 32.4584C25.2171 32.4584 29.0413 30.5463 29.0413 28.1876C29.0413 25.8289 25.2171 23.9167 20.4997 23.9167C15.7822 23.9167 11.958 25.8289 11.958 28.1876C11.958 30.5463 15.7822 32.4584 20.4997 32.4584Z" stroke="#808080" stroke-linecap="round" stroke-linejoin="round"/>
<path d="M13.2399 25.625C12.4488 24.5397 11.958 23.0271 11.958 21.3542C11.958 18.052 13.8701 15.375 16.2288 15.375C18.5875 15.375 20.4997 18.052 20.4997 21.3542C20.4997 22.1321 20.3936 22.8753 20.2005 23.5571" stroke="#808080" stroke-linecap="round" stroke-linejoin="round"/>
<path d="M27.7597 25.625C28.5509 24.5397 29.0417 23.0271 29.0417 21.3542C29.0417 18.052 27.1295 15.375 24.7708 15.375C22.4121 15.375 20.5 18.052 20.5 21.3542C20.5 22.1321 20.6061 22.8753 20.7991 23.5571" stroke="#808080" stroke-linecap="round" stroke-linejoin="round"/>
<path d="M16.2295 20.5V23.9167" stroke="#808080" stroke-linecap="round" stroke-linejoin="round"/>
<path d="M24.7705 20.5V23.9167" stroke="#808080" stroke-linecap="round" stroke-linejoin="round"/>
</svg>
