<svg width="24" height="24" viewBox="0 0 24 24" fill="none" xmlns="http://www.w3.org/2000/svg">
<rect width="24" height="24" fill="white"/>
<path d="M6.65227 12.4467C8.35945 12.4467 9.74789 11.0578 9.74789 9.35109C9.74789 7.64437 8.35898 6.25546 6.65227 6.25546C4.94555 6.25546 3.55664 7.64437 3.55664 9.35109C3.55664 11.0578 4.94508 12.4467 6.65227 12.4467ZM6.65227 7.75546C7.53211 7.75546 8.24789 8.47124 8.24789 9.35109C8.24789 10.2309 7.53211 10.9467 6.65227 10.9467C5.77242 10.9467 5.05664 10.2309 5.05664 9.35109C5.05664 8.47124 5.77242 7.75546 6.65227 7.75546Z" fill="#C4C4C4"/>
<path d="M2.03906 21.6942H3.79688C4.15313 21.6942 4.46016 21.4439 4.53141 21.0947L4.56516 20.9288C4.87594 19.4114 6.22547 18.3103 7.77422 18.3103H16.2253C17.7741 18.3103 19.1236 19.4114 19.4344 20.9288L19.4681 21.0942C19.5394 21.443 19.8469 21.6938 20.2027 21.6938H21.9605C22.3748 21.6938 22.7105 21.3581 22.7105 20.9438V13.8984C22.7105 13.8933 22.71 13.8877 22.7095 13.8825C22.7095 13.8773 22.71 13.8722 22.7095 13.867L22.5642 10.3955C22.5112 9.12704 21.66 8.02454 20.4459 7.65188L14.1075 5.70797C13.1878 5.42579 12.217 5.59219 11.4436 6.16407C10.6702 6.73594 10.2267 7.61532 10.2267 8.57719V13.1484H2.78906V3.05579C2.78906 2.64141 2.45344 2.30579 2.03906 2.30579C1.62469 2.30579 1.28906 2.64141 1.28906 3.05579V13.8984V14.6166V20.9442C1.28906 21.3586 1.62469 21.6942 2.03906 21.6942ZM21.2109 20.1942H20.7933C20.5181 19.2928 19.9781 18.4852 19.2445 17.8861C18.3947 17.1928 17.3222 16.8108 16.2253 16.8108H7.77469C6.67781 16.8108 5.60531 17.1928 4.75547 17.8861C4.02141 18.4852 3.48188 19.2928 3.20672 20.1942H2.78906V14.6484H10.9777H21.2109V20.1942ZM11.7277 8.57766C11.7277 8.09672 11.9494 7.65657 12.3361 7.37063C12.7228 7.08469 13.2084 7.00172 13.6683 7.14282L20.0067 9.08672C20.6138 9.27282 21.0398 9.82454 21.0661 10.4588L21.1786 13.1489H11.7277V8.57766Z" fill="#C4C4C4"/>
</svg>
