<svg width="24" height="24" viewBox="0 0 24 24" fill="none" xmlns="http://www.w3.org/2000/svg">
<rect width="24" height="24" fill="white"/>
<path d="M6.65227 12.4466C8.35945 12.4466 9.74789 11.0577 9.74789 9.351C9.74789 7.64428 8.35898 6.25537 6.65227 6.25537C4.94555 6.25537 3.55664 7.64428 3.55664 9.351C3.55664 11.0577 4.94508 12.4466 6.65227 12.4466ZM6.65227 7.75537C7.53211 7.75537 8.24789 8.47115 8.24789 9.351C8.24789 10.2308 7.53211 10.9466 6.65227 10.9466C5.77242 10.9466 5.05664 10.2308 5.05664 9.351C5.05664 8.47115 5.77242 7.75537 6.65227 7.75537Z" fill="#FDBE32"/>
<path d="M2.03906 21.6941H3.79688C4.15313 21.6941 4.46016 21.4438 4.53141 21.0946L4.56516 20.9286C4.87594 19.4113 6.22547 18.3102 7.77422 18.3102H16.2253C17.7741 18.3102 19.1236 19.4113 19.4344 20.9286L19.4681 21.0941C19.5394 21.4429 19.8469 21.6936 20.2027 21.6936H21.9605C22.3748 21.6936 22.7105 21.358 22.7105 20.9436V13.8983C22.7105 13.8932 22.71 13.8875 22.7095 13.8824C22.7095 13.8772 22.71 13.8721 22.7095 13.8669L22.5642 10.3954C22.5112 9.12691 21.66 8.02441 20.4459 7.65176L14.1075 5.70785C13.1878 5.42566 12.217 5.59207 11.4436 6.16395C10.6702 6.73582 10.2267 7.61519 10.2267 8.57707V13.1483H2.78906V3.05566C2.78906 2.64129 2.45344 2.30566 2.03906 2.30566C1.62469 2.30566 1.28906 2.64129 1.28906 3.05566V13.8983V14.6164V20.9441C1.28906 21.3585 1.62469 21.6941 2.03906 21.6941ZM21.2109 20.1941H20.7933C20.5181 19.2927 19.9781 18.485 19.2445 17.886C18.3947 17.1927 17.3222 16.8107 16.2253 16.8107H7.77469C6.67781 16.8107 5.60531 17.1927 4.75547 17.886C4.02141 18.485 3.48188 19.2927 3.20672 20.1941H2.78906V14.6483H10.9777H21.2109V20.1941ZM11.7277 8.57754C11.7277 8.0966 11.9494 7.65645 12.3361 7.37051C12.7228 7.08457 13.2084 7.0016 13.6683 7.1427L20.0067 9.0866C20.6138 9.2727 21.0398 9.82441 21.0661 10.4586L21.1786 13.1488H11.7277V8.57754Z" fill="#FDBE32"/>
</svg>
