<svg width="56" height="56" viewBox="0 0 56 56" fill="none" xmlns="http://www.w3.org/2000/svg">
<rect width="56" height="56" rx="28" fill="#424242"/>
<path d="M27.9997 45.9167C18.1163 45.9167 10.083 37.8834 10.083 28C10.083 18.1167 18.1163 10.0834 27.9997 10.0834C37.883 10.0834 45.9163 18.1167 45.9163 28C45.9163 37.8834 37.883 45.9167 27.9997 45.9167ZM27.9997 12.5834C19.4997 12.5834 12.583 19.5 12.583 28C12.583 36.5 19.4997 43.4167 27.9997 43.4167C36.4997 43.4167 43.4163 36.5 43.4163 28C43.4163 19.5 36.4997 12.5834 27.9997 12.5834Z" fill="#FDBE32"/>
<path d="M32.167 29.25H22.167C21.4837 29.25 20.917 28.6833 20.917 28C20.917 27.3167 21.4837 26.75 22.167 26.75H32.167C32.8503 26.75 33.417 27.3167 33.417 28C33.417 28.6833 32.8503 29.25 32.167 29.25Z" fill="#FDBE32"/>
<path d="M28.8337 34.25C28.5171 34.25 28.2004 34.1333 27.9504 33.8833C27.4671 33.4 27.4671 32.6 27.9504 32.1166L32.0671 28L27.9504 23.8833C27.4671 23.4 27.4671 22.6 27.9504 22.1167C28.4337 21.6333 29.2337 21.6333 29.7171 22.1167L34.7171 27.1166C35.2004 27.6 35.2004 28.4 34.7171 28.8833L29.7171 33.8833C29.4671 34.1333 29.1504 34.25 28.8337 34.25Z" fill="#FDBE32"/>
</svg>
