<svg width="32" height="32" viewBox="0 0 32 32" fill="none" xmlns="http://www.w3.org/2000/svg">
<path d="M21.587 2.66675H10.4137C5.56033 2.66675 2.66699 5.56008 2.66699 10.4134V21.5734C2.66699 26.4401 5.56033 29.3334 10.4137 29.3334H21.5737C26.427 29.3334 29.3203 26.4401 29.3203 21.5868V10.4134C29.3337 5.56008 26.4403 2.66675 21.587 2.66675ZM21.3337 17.0001H17.0003V21.3334C17.0003 21.8801 16.547 22.3334 16.0003 22.3334C15.4537 22.3334 15.0003 21.8801 15.0003 21.3334V17.0001H10.667C10.1203 17.0001 9.66699 16.5467 9.66699 16.0001C9.66699 15.4534 10.1203 15.0001 10.667 15.0001H15.0003V10.6667C15.0003 10.1201 15.4537 9.66675 16.0003 9.66675C16.547 9.66675 17.0003 10.1201 17.0003 10.6667V15.0001H21.3337C21.8803 15.0001 22.3337 15.4534 22.3337 16.0001C22.3337 16.5467 21.8803 17.0001 21.3337 17.0001Z" fill="#FDBE32"/>
</svg>
