<svg version="1.2" xmlns="http://www.w3.org/2000/svg" viewBox="0 0 95 91" width="95" height="91"><style>.a{fill:#326de6}.b{fill:#fff}</style><path class="a" d="m83.8 21.8c-0.5-1.6-1.7-2.9-3.2-3.7l-30.5-14.6c-0.8-0.4-1.7-0.5-2.5-0.5-0.8 0-1.7 0-2.5 0.2l-30.5 14.7c-1.5 0.7-2.6 2-3 3.7l-7.5 32.9c-0.3 1.7 0.1 3.4 1.1 4.8l21.1 26.1c1.2 1.2 2.9 2 4.6 2.1h33.6c1.8 0.2 3.5-0.6 4.6-2.1l21.1-26.1c1-1.4 1.4-3.1 1.2-4.8z"/><path fill-rule="evenodd" class="b" d="m80.9 55.3c-0.3 0.8-1.1 1.4-2 1.4-0.2 0-0.3 0-0.5-0.1-0.1-0.1-0.1-0.1-0.2-0.1-0.2 0-0.3-0.1-0.4-0.1-0.4-0.1-0.7-0.3-1.1-0.5-0.2 0-0.4-0.1-0.6-0.2h-0.1c-1-0.4-2.1-0.7-3.2-0.9h-0.1c-0.3 0-0.6 0.1-0.8 0.3 0 0 0 0.1-0.1 0.1l-0.8-0.1c-1.8 5.7-5.7 10.5-10.8 13.6l0.3 0.8c0 0-0.1 0-0.1 0.1-0.2 0.3-0.2 0.7-0.1 1 0.4 1 0.9 2 1.6 2.9v0.2c0.2 0.2 0.3 0.3 0.4 0.5 0.3 0.3 0.5 0.6 0.7 1 0.1 0.1 0.2 0.2 0.2 0.3 0 0 0.1 0 0.1 0.1 0.2 0.5 0.2 1 0.1 1.5-0.1 0.5-0.5 0.9-0.9 1.1-0.3 0.1-0.5 0.2-0.8 0.2-0.8 0-1.5-0.5-1.9-1.2-0.1 0-0.1-0.1-0.1-0.1-0.1-0.1-0.1-0.2-0.2-0.3-0.2-0.3-0.3-0.7-0.4-1.1l-0.2-0.6v-0.1c-0.3-1.1-0.8-2.1-1.3-3.1-0.2-0.3-0.5-0.5-0.8-0.6 0-0.1 0-0.1-0.1-0.1l-0.4-0.7c-1 0.3-2.1 0.7-3.2 0.9-1.8 0.5-3.6 0.7-5.4 0.7-3 0-5.9-0.5-8.7-1.6l-0.4 0.8c0 0.1 0 0.1-0.1 0.1-0.3 0.1-0.6 0.3-0.8 0.6-0.5 1-1 2-1.3 3.1l-0.2 0.6c-0.1 0.4-0.3 0.7-0.4 1.1-0.1 0.1-0.2 0.2-0.2 0.3-0.1 0-0.1 0.1-0.1 0.1-0.4 0.7-1.1 1.2-1.9 1.2-0.2 0-0.5-0.1-0.7-0.2-0.9-0.5-1.3-1.7-0.8-2.7 0.1 0 0.1-0.1 0.1-0.1 0.1-0.1 0.1-0.2 0.2-0.3 0.3-0.4 0.5-0.8 0.7-1 0.2-0.2 0.3-0.3 0.4-0.5v-0.1c0.6-0.9 1.2-1.9 1.6-2.9 0.1-0.3 0.1-0.7-0.1-1 0 0-0.1 0-0.1-0.1l0.5-0.7c-1-0.5-1.8-1.1-2.7-1.8-3.9-3-6.7-7.1-8.2-11.7l-0.9 0.1c0 0 0-0.1-0.1-0.1-0.2-0.2-0.5-0.3-0.8-0.3h-0.1c-1.2 0.2-2.2 0.5-3.3 0.9h-0.1c-0.2 0-0.4 0.1-0.6 0.2-0.3 0.1-0.7 0.3-1.1 0.4-0.1 0-0.4-0.1-0.4 0 0 0.1 0 0.1-0.1 0.1-0.2 0.1-0.3 0.1-0.5 0.1-0.9 0.1-1.8-0.5-2-1.4-0.2-1.1 0.5-2.1 1.6-2.3 0.1-0.1 0.1-0.1 0.2-0.1 0.2 0 0.3-0.1 0.4-0.1 0.4 0 0.8-0.1 1.2-0.1 0.2-0.1 0.4-0.1 0.6-0.1 1.2-0.1 2.3-0.3 3.4-0.6 0.3-0.2 0.6-0.4 0.7-0.7 0 0 0.1 0 0.1-0.1l0.8-0.2c-0.9-5.7 0.4-11.5 3.5-16.4 0.1-0.2 0.2-0.3 0.3-0.5l-0.6-0.6c0.1-0.3-0.1-0.6-0.3-0.8-0.8-0.8-1.8-1.4-2.8-2q-0.3-0.2-0.6-0.3c-0.4-0.2-0.8-0.4-1.1-0.6-0.1 0-0.3-0.2-0.3-0.2 0 0 0-0.1-0.1-0.1-0.8-0.7-1-1.9-0.4-2.8 0.3-0.5 0.8-0.7 1.4-0.7 0.5 0 1 0.2 1.4 0.5 0 0 0 0 0.1 0.1 0.1 0.1 0.2 0.1 0.3 0.2 0.3 0.3 0.5 0.6 0.8 0.9 0.1 0.1 0.3 0.2 0.4 0.4 0.7 0.8 1.6 1.6 2.5 2.3 0.2 0.1 0.4 0.2 0.6 0.2 0.2 0 0.3-0.1 0.4-0.1h0.1l0.6 0.4c3.3-3.5 7.6-6 12.3-7 1.2-0.2 2.3-0.4 3.4-0.5l0.1-0.8v-0.2c0.3-0.2 0.4-0.5 0.5-0.8 0-1.2 0-2.3-0.2-3.4v-0.1c0-0.2 0-0.4-0.1-0.6-0.1-0.4-0.2-0.8-0.2-1.2v-0.5c0-0.5 0.2-1 0.6-1.4 0.5-0.5 1.1-0.8 1.7-0.7 1 0.1 1.8 1.1 1.7 2.1v0.6c-0.1 0.4-0.1 0.8-0.2 1.2 0 0.2-0.1 0.4-0.1 0.6v0.1c-0.2 1.2-0.2 2.3-0.2 3.4 0.1 0.3 0.2 0.6 0.5 0.8v-0.1l0.1 0.8c4.7 0.5 9.3 2.3 13 5.2 0.8 0.8 1.7 1.6 2.5 2.4l0.8-0.5h0.1c0.1 0.1 0.3 0.1 0.4 0.1 0.2 0 0.4-0.1 0.6-0.2 0.9-0.6 1.8-1.4 2.5-2.2 0.1-0.1 0.3-0.2 0.4-0.4 0.2-0.3 0.5-0.6 0.8-0.9 0.1 0 0.2-0.1 0.3-0.2l0.1-0.1c0.4-0.3 0.9-0.5 1.4-0.5 0.5 0 1.1 0.3 1.4 0.7 0.7 0.9 0.5 2.1-0.4 2.8 0 0.1 0.1 0.1 0 0.2-0.1 0.1-0.2 0.1-0.3 0.2-0.4 0.2-0.7 0.4-1.1 0.6q-0.3 0.1-0.6 0.3c-1 0.6-1.9 1.2-2.8 2-0.2 0.2-0.3 0.6-0.3 0.9v0.1l-0.6 0.6c1.6 2.5 2.8 5.3 3.5 8.2 0.6 2.9 0.8 5.9 0.4 8.8l0.8 0.2c0 0 0.1 0 0 0 0.1 0.3 0.4 0.6 0.7 0.7 1.1 0.3 2.3 0.5 3.4 0.6h0.1c0.2 0.1 0.4 0.1 0.6 0.1 0.4 0 0.8 0 1.2 0.1 0.2 0 0.4 0 0.4 0.1 0 0.1 0.1 0.1 0.2 0.1 0.9 0.2 1.7 1 1.8 2.1zm-54.2-21.7v-0.1q0 0.1 0 0.1zm24.2 13.6l-1.9-2.4h-3l-1.9 2.4 0.7 2.9 2.7 1.3 2.7-1.3zm13.2-9.5l-7.5 6.8c-0.2 0.2-0.3 0.4-0.4 0.7-0.2 0.9 0.3 1.8 1.2 2l9.5 2.7c0.2-2.1 0.1-4.2-0.4-6.3-0.5-2.1-1.3-4.1-2.4-5.9zm-14.3-9.1l0.6 10.1c0 0.3 0.1 0.5 0.3 0.7 0.5 0.7 1.5 0.8 2.2 0.4l8.2-5.8c-3-3-6.9-4.9-11.3-5.4zm-16.1 5.4l8.3 5.9c0.3 0.1 0.5 0.2 0.8 0.2 0.9 0 1.7-0.7 1.7-1.6l0.5-10-2 0.4c-3.5 0.8-6.7 2.6-9.3 5.1zm-5.8 15.9l9.7-2.8c0.4-0.1 0.6-0.2 0.8-0.5 0.6-0.7 0.5-1.7-0.2-2.3l-7.4-6.6c-2.2 3.7-3.2 8-2.9 12.2zm8.9 14.5l3.8-9.2c0.2-0.3 0.2-0.7 0.1-1-0.1-0.8-0.9-1.3-1.7-1.3l-9.9 1.7c1.4 4 4.2 7.5 7.7 9.8zm16.9 2.2l-4.8-8.7c-0.3-0.3-0.5-0.5-0.8-0.7-0.7-0.4-1.5-0.2-2 0.4l-4.9 8.9c2 0.6 4.2 1 6.3 1 1.5 0 2.9-0.2 4.3-0.5 0.7-0.2 1.3-0.3 1.9-0.4zm12.2-12.1l-10-1.7c-0.3 0-0.6 0.1-0.9 0.2-0.7 0.3-1.1 1.1-0.9 1.9l3.9 9.4c2.4-1.5 4.5-3.6 6-6 0.8-1.1 1.4-2.4 1.9-3.8z"/><path fill-rule="evenodd" d="m488.5 65.5c1.4 0.1 2.9-0.1 4.2-0.6 0.8-0.4 1.3-1.3 1.2-2.2-0.1-1-0.7-1.9-1.6-2.2-1.5-0.9-3.2-1.7-4.9-2.2-1.7-0.6-3.2-1.3-4.6-2-1.3-0.6-2.4-1.4-3.5-2.4-1-1-1.7-2.1-2.2-3.4-0.6-1.5-0.8-3.1-0.8-4.7-0.1-3.3 1.4-6.5 4-8.5 2.7-2.1 6.3-3.1 10.9-3.1 2.2 0 4.5 0.2 6.7 0.7 1.7 0.3 3.4 0.7 5.1 1.3l-1.9 8.5c-1.4-0.5-2.7-0.8-4.1-1.2-1.6-0.4-3.3-0.5-4.9-0.5-3.4 0-5.1 0.9-5.1 2.8 0 0.4 0.1 0.8 0.2 1.2 0.2 0.4 0.5 0.7 0.9 1 0.4 0.3 1 0.6 1.7 1 0.7 0.4 1.7 0.8 2.9 1.2 2 0.7 4 1.6 5.8 2.6 1.4 0.7 2.6 1.6 3.6 2.8 0.9 0.9 1.5 2 1.9 3.3q0.6 2.1 0.6 4.2c0.2 3.4-1.4 6.7-4.3 8.6-2.8 1.9-6.8 2.9-12 2.9-2.9 0.1-5.7-0.2-8.5-0.9-1.6-0.4-3.1-0.9-4.6-1.4l1.8-8.8c1.8 0.7 3.7 1.3 5.6 1.7 2 0.1 3.9 0.3 5.9 0.3zm-55.1-11c-0.1-3 0.5-6 1.5-8.8 0.9-2.4 2.3-4.5 4.1-6.4 1.7-1.7 3.6-3 5.8-3.8 2.2-0.9 4.5-1.3 6.8-1.3 5.4 0 9.7 1.7 12.8 5 3.1 3.3 4.7 8.2 4.7 14.6 0 0.6 0 1.3-0.1 2.1 0 0.8-0.1 1.4-0.1 2h-24.4c0.2 2.1 1.3 4.1 3.1 5.3 2.2 1.4 4.8 2.1 7.4 2 1.9 0 3.9-0.2 5.8-0.5 1.6-0.3 3.2-0.8 4.7-1.5l1.5 8.8c-0.7 0.4-1.5 0.6-2.3 0.9-1.1 0.3-2.2 0.6-3.3 0.7-1.2 0.2-2.4 0.4-3.8 0.6-1.3 0.1-2.7 0.2-4.1 0.2q-4.7 0.1-9-1.5c-2.4-0.9-4.5-2.3-6.3-4.1-1.7-1.8-2.9-4-3.7-6.3-0.7-2.7-1.1-5.4-1.1-8zm25.3-4.1c0-0.9-0.2-1.8-0.5-2.7-0.2-0.9-0.7-1.6-1.2-2.3-0.6-0.7-1.3-1.3-2.1-1.7-1-0.5-2-0.7-3.1-0.7-1.1 0-2.1 0.2-3.1 0.7-0.8 0.4-1.6 0.9-2.2 1.6-0.6 0.7-1.1 1.5-1.4 2.4q-0.5 1.3-0.6 2.7zm-54.6-24.8l10.8-1.7v11.2h13v9h-13v13.4c-0.1 1.9 0.3 3.8 1.2 5.4 0.8 1.3 2.4 2 4.9 2 1.2 0 2.4-0.1 3.5-0.3 1.2-0.2 2.3-0.5 3.4-0.9l1.5 8.4c-1.4 0.6-2.9 1-4.4 1.4-1.9 0.4-3.9 0.6-5.9 0.6-2.5 0.1-5-0.3-7.3-1.2-1.8-0.7-3.4-1.9-4.6-3.3-1.2-1.5-2-3.3-2.5-5.2-0.5-2.2-0.7-4.5-0.6-6.7zm-43.7 28.9c-0.1-3 0.5-6 1.5-8.8 0.9-2.4 2.3-4.5 4.1-6.4 1.7-1.7 3.6-3 5.8-3.8 2.2-0.9 4.5-1.3 6.8-1.3 5.4 0 9.7 1.7 12.8 5 3.1 3.3 4.7 8.2 4.7 14.6 0 0.6 0 1.3-0.1 2.1-0.1 0.8-0.1 1.4-0.1 2h-24.5c0.2 2.1 1.3 4.1 3.1 5.3 2.2 1.4 4.8 2.1 7.4 2 1.9 0 3.9-0.2 5.8-0.5q2.4-0.5 4.8-1.5l1.5 8.8c-0.7 0.4-1.5 0.6-2.3 0.9-1.1 0.3-2.2 0.6-3.3 0.7-1.2 0.2-2.4 0.4-3.8 0.6-1.3 0.1-2.7 0.2-4.1 0.2q-4.7 0.1-9-1.5c-2.4-0.9-4.5-2.3-6.3-4.1-1.7-1.8-2.9-4-3.7-6.3-0.8-2.7-1.2-5.4-1.1-8zm25.3-4.1c0-0.9-0.2-1.8-0.5-2.7-0.2-0.9-0.7-1.6-1.2-2.3-0.6-0.7-1.3-1.3-2.1-1.7-1-0.5-2-0.7-3.1-0.7-1.1 0-2.1 0.2-3.1 0.7-0.8 0.4-1.5 0.9-2.1 1.6-0.6 0.7-1.1 1.5-1.4 2.4q-0.5 1.3-0.6 2.7zm-66.3-14c2.3-0.6 4.7-1.1 7.1-1.5 3-0.5 6.1-0.7 9.1-0.7 2.7-0.1 5.4 0.4 8 1.3 2 0.7 3.8 1.9 5.1 3.5 1.3 1.6 2.2 3.5 2.7 5.5 0.6 2.3 0.8 4.7 0.8 7.1v21.5h-10.7v-20.1c0-3.5-0.5-5.9-1.4-7.4-0.9-1.4-2.6-2.2-5.1-2.2-0.8 0-1.6 0-2.5 0.1-0.9 0-1.6 0.1-2.3 0.2v29.4h-10.8zm-7.6 8.3c-1-0.2-2.1-0.5-3.4-0.7-1.4-0.3-2.8-0.4-4.2-0.4-0.8 0-1.6 0.1-2.5 0.2-0.7 0.1-1.4 0.2-2.1 0.4v29.1h-10.8v-36.2c2.2-0.8 4.5-1.4 6.8-1.9 2.9-0.7 5.9-1 8.8-0.9 0.7 0 1.4 0.1 2.1 0.1 0.8 0 1.6 0.1 2.5 0.3 0.8 0.1 1.6 0.2 2.5 0.4q1 0.1 2.1 0.6zm-67.1 9.8c-0.1-3 0.5-6 1.5-8.8 0.9-2.4 2.3-4.5 4.1-6.4 1.7-1.7 3.6-3 5.8-3.8 2.2-0.9 4.5-1.3 6.8-1.3 5.4 0 9.7 1.7 12.8 5 3.1 3.3 4.7 8.2 4.7 14.5 0 0.6 0 1.3-0.1 2.1-0.1 0.8-0.1 1.4-0.1 2h-24.5c0.2 2.1 1.3 4.1 3.1 5.3 2.2 1.4 4.8 2.1 7.4 2 1.9 0 3.9-0.2 5.8-0.5 1.6-0.3 3.2-0.8 4.7-1.4l1.5 8.8c-0.7 0.4-1.5 0.6-2.3 0.9-1.1 0.3-2.2 0.6-3.3 0.7-1.2 0.2-2.4 0.4-3.8 0.6-1.3 0.1-2.7 0.2-4.1 0.2q-4.7 0.2-9-1.5c-2.4-0.9-4.5-2.3-6.3-4.1-1.7-1.8-2.9-4-3.7-6.3-0.6-2.7-1-5.3-1-8zm25.4-4.1c0-0.9-0.2-1.8-0.5-2.7-0.2-0.9-0.7-1.6-1.2-2.3-0.6-0.7-1.3-1.3-2.1-1.7-1-0.5-2-0.7-3.1-0.7-1.1 0-2.1 0.2-3.1 0.7-0.8 0.4-1.6 0.9-2.2 1.6-0.6 0.7-1.1 1.5-1.4 2.4q-0.5 1.4-0.6 2.7zm-31.9 3.9c0 2.8-0.4 5.6-1.4 8.3-0.8 2.4-2.1 4.5-3.8 6.3-1.8 1.8-3.9 3.2-6.2 4.1-2.7 1-5.5 1.4-8.4 1.4-1.3 0-2.7-0.1-4.1-0.2-1.4-0.1-2.8-0.3-4.2-0.4-1.3-0.2-2.6-0.4-3.9-0.7q-2-0.3-3.3-0.9v-53.5l10.8-1.7v19c1.2-0.5 2.5-0.9 3.8-1.2 1.4-0.3 2.8-0.4 4.2-0.4 2.5 0 4.9 0.4 7.2 1.5 2 0.9 3.8 2.3 5.2 4 1.5 1.9 2.6 4 3.2 6.3 0.6 2.5 0.9 5.3 0.9 8.1zm-11-0.4c0-7-2.6-10.4-7.7-10.4-1.1 0-2.2 0.1-3.3 0.4-0.9 0.2-1.8 0.6-2.6 1.1v19.6c0.5 0.1 1.2 0.2 2 0.3 0.8 0.1 1.7 0.1 2.7 0.1 2.6 0.2 5.1-0.9 6.7-3 1.5-2.4 2.3-5.2 2.2-8.1zm-34.6 18c-2.3 0.6-4.7 1.1-7.1 1.4-3 0.5-6.1 0.7-9.1 0.7-2.8 0.1-5.5-0.4-8.1-1.3q-3-1.2-5.1-3.6-2-2.5-2.7-5.7c-0.6-2.3-0.8-4.8-0.8-7.2v-21.1h10.8v19.9c0 3.5 0.5 6 1.4 7.5 0.9 1.5 2.6 2.3 5.1 2.3 0.8 0 1.6 0 2.5-0.1 0.9-0.1 1.6-0.1 2.3-0.3v-29.3h10.8zm-63-23c1.1-1.2 2.1-2.4 3.3-3.6 1.1-1.3 2.2-2.5 3.3-3.7 1.1-1.3 2.1-2.4 3-3.5 0.9-1.1 1.8-2.1 2.5-2.9h12.8c-2.6 2.9-5.1 5.8-7.5 8.5-2.5 2.7-5.1 5.5-8 8.3 1.6 1.5 3.1 3 4.5 4.7 1.5 1.8 3 3.6 4.5 5.6 1.4 1.9 2.8 3.9 4 5.8 1.2 1.9 2.2 3.7 3 5.3h-12.4c-0.8-1.3-1.7-2.6-2.7-4.1-1-1.5-2.1-3-3.1-4.6-1.1-1.5-2.3-3-3.6-4.4-1.1-1.3-2.3-2.5-3.6-3.5v16.7h-10.8v-54.8l10.8-1.7z"/></svg>