<svg width="290" height="107" viewBox="0 0 290 107" fill="none" xmlns="http://www.w3.org/2000/svg">
<path d="M228.722 7.79688V107H290V7.79688H228.722ZM242.813 15.733C242.885 15.7282 243.193 15.8374 243.801 16.0698C253.282 19.6953 253.814 18.342 257.908 19.3806C257.908 19.3806 264.204 21.7821 264.84 30.3488C265.076 33.5301 258.901 15.5 254.571 30.2929L253.004 29.8116C253.306 21.4164 242.31 15.7682 242.813 15.733ZM265.024 32.5426C265.218 32.4921 265.372 32.539 265.475 32.7146C270.216 40.7796 274.509 57.1915 275.827 70.5032C276.773 80.0557 270.554 99.0637 270.554 99.0637C270.554 99.0637 264.424 83.1798 264.298 72.8969C264.878 59.5409 264.87 50.9011 260.51 42.733C257.493 37.8405 255.058 34.2666 253.601 33.277C253.175 32.9878 256.782 33.9143 259.465 36.9423C260.411 38.0106 263.671 32.8961 265.024 32.5426ZM248.15 70.4502C248.15 70.4502 250.457 80.1 251.664 84.9116C252.801 89.4414 255.176 98.4762 255.176 98.4762C255.176 98.4762 253.934 99.2616 253.31 98.2052C251.606 95.3195 249.143 87.9902 248.262 84.2276C247.215 79.7557 248.15 70.4502 248.15 70.4502Z" fill="black"/>
<path d="M71.6635 0C67.3375 0 63.8302 3.4823 63.7821 7.79684H65.3923C65.4413 4.3713 68.2264 1.60853 71.6635 1.60853C75.1005 1.60853 77.889 4.3713 77.937 7.79684H79.5473C79.4983 3.4823 75.9895 0 71.6635 0ZM79.5473 7.79684C79.5475 7.82625 79.5522 7.85565 79.5522 7.88555C79.5522 12.2415 76.0193 15.7736 71.6633 15.7736C67.3073 15.7736 63.7769 12.2415 63.7769 7.88555C63.7769 7.85614 63.7819 7.82674 63.7821 7.79684H0V47.6296H224.702V7.79684H79.5473ZM77.937 7.79684H76.018C76.0187 7.82625 76.0277 7.85516 76.0277 7.88555C76.0277 10.3322 74.049 12.3134 71.6023 12.3134C69.5098 12.3134 67.7542 10.8489 67.3035 8.90135H69.4124C69.799 9.72221 70.6365 10.2996 71.6023 10.2996C72.9383 10.2996 74.0175 9.22154 74.0175 7.88555C74.0175 7.85614 74.0078 7.82723 74.0078 7.79684H65.3923C65.3919 7.82625 65.3899 7.85565 65.3899 7.88555C65.3899 11.3525 68.199 14.1651 71.666 14.1651C75.1331 14.1651 77.9448 11.3525 77.9448 7.88555C77.9448 7.85614 77.9373 7.82674 77.937 7.79684ZM74.0078 7.79684H76.018C75.969 5.3923 74.0164 3.46019 71.6001 3.46019C69.5076 3.46019 67.752 4.92373 67.3013 6.88745H69.4102C69.7967 6.05046 70.6343 5.47146 71.6001 5.47146C72.9056 5.47146 73.9602 6.50325 74.0078 7.79684ZM52.9614 11.2874V19.2869C53.3122 19.1698 53.7336 19.0664 54.2248 18.9727C54.716 18.8556 55.1494 18.7953 55.5236 18.7953C56.74 18.7953 57.7556 18.9835 58.5743 19.3576C59.3929 19.7086 60.0503 20.222 60.5416 20.9003C61.0327 21.5552 61.3817 22.3508 61.5922 23.2864C61.8028 24.1987 61.9087 25.2161 61.9087 26.3388V35.6377H57.592V26.9011C57.592 25.3574 57.4186 24.2459 57.0679 23.5676C56.7172 22.8893 56.0503 22.5493 55.0679 22.5493C54.6701 22.5493 54.2705 22.5983 53.8729 22.691C53.4986 22.7846 53.1953 22.8664 52.9614 22.9365V35.6374H48.6474V12.024L52.9614 11.2874ZM135.415 11.4977H144.291V29.3914C144.291 30.5142 144.513 31.2761 144.957 31.6737C145.402 32.0713 145.963 32.269 146.641 32.269C147.506 32.269 148.233 32.1533 148.818 31.9195C149.403 31.6857 149.788 31.5313 149.975 31.4612L150.537 34.9366C150.467 34.9856 150.304 35.0655 150.046 35.1822C149.812 35.2993 149.494 35.4268 149.097 35.567C148.699 35.6841 148.208 35.79 147.623 35.8836C147.062 35.9772 146.419 36.0228 145.694 36.0228C143.706 36.0228 142.257 35.4395 141.345 34.2699C140.432 33.077 139.975 31.3459 139.975 29.0771V15.0768H135.415V11.4977ZM12.317 12.473C13.1441 12.473 13.8508 12.7666 14.436 13.352L24.6541 23.578C26.7978 25.7228 26.7978 27.8681 24.6541 30.0044L14.4435 40.2305C13.8527 40.8216 13.1449 41.1145 12.3093 41.1145C11.4907 41.1047 10.7811 40.8131 10.1903 40.2305C9.60794 39.6479 9.31248 38.9378 9.30415 38.1103C9.31395 37.2828 9.60684 36.5736 10.1978 35.9825L19.3804 26.795L10.1903 17.5999C9.60794 17.0173 9.31177 16.3073 9.31177 15.4797C9.31177 14.6522 9.60818 13.9422 10.1903 13.3596C10.7811 12.7685 11.4899 12.473 12.317 12.473ZM38.2596 18.7271C39.3356 18.7271 40.3298 18.809 41.2421 18.9727C42.1777 19.1364 42.9866 19.3703 43.6649 19.6744L42.9966 23.3221C42.5988 23.2049 41.9803 23.0172 41.1383 22.7597C40.2962 22.4788 39.3478 22.3391 38.2952 22.3391C37.1958 22.3391 36.4471 22.4788 36.0495 22.7597C35.6752 23.017 35.4899 23.2991 35.4899 23.6032C35.4899 23.8606 35.5717 24.0943 35.7354 24.3049C35.9225 24.4921 36.1557 24.6681 36.4366 24.8318C36.7408 24.9955 37.0802 25.1597 37.4545 25.3232C37.8523 25.4634 38.2733 25.6031 38.7177 25.7438C39.3493 25.954 40.0041 26.1884 40.6824 26.4455C41.3608 26.7028 41.9673 27.0306 42.5053 27.4283C43.0666 27.8028 43.5241 28.2919 43.875 28.9C44.2258 29.4847 44.4016 30.2105 44.4016 31.0759C44.4016 31.7542 44.2717 32.398 44.014 33.0061C43.7568 33.6143 43.3234 34.1398 42.7152 34.5842C42.1304 35.0288 41.3602 35.3807 40.4012 35.638C39.4422 35.8953 38.2602 36.0228 36.8567 36.0228C35.4299 36.0228 34.2143 35.859 33.2085 35.5314C32.2027 35.2039 31.3963 34.9122 30.7882 34.6549L31.4541 31.0402C32.2728 31.3677 33.1368 31.6714 34.049 31.9521C34.9846 32.233 35.9331 32.3751 36.8922 32.3751C37.9447 32.3751 38.7511 32.305 39.3125 32.1648C39.8739 32.0011 40.1556 31.6855 40.1556 31.2175C40.1556 30.9136 40.0615 30.6554 39.8743 30.4449C39.7107 30.2346 39.4653 30.0581 39.1377 29.918C38.8334 29.7543 38.4701 29.6023 38.0491 29.4621C37.6513 29.3219 37.2301 29.1822 36.7857 29.0416C36.1541 28.8543 35.5115 28.6421 34.8565 28.4083C34.2016 28.1509 33.6046 27.8352 33.0666 27.4609C32.5286 27.0864 32.0857 26.6189 31.7349 26.0576C31.3841 25.4728 31.2083 24.7496 31.2083 23.8842C31.2083 23.1825 31.3356 22.5266 31.5933 21.9185C31.874 21.287 32.2953 20.7373 32.8567 20.2695C33.4414 19.7783 34.178 19.4046 35.0669 19.1473C35.9558 18.8665 37.0199 18.7271 38.2596 18.7271ZM107.485 18.7271C108.842 18.7271 109.966 18.8914 110.855 19.2186C111.767 19.5225 112.492 19.9662 113.029 20.551C113.567 21.1123 113.953 21.8139 114.187 22.656C114.42 23.4746 114.538 24.398 114.538 25.4271V35.2504C113.907 35.3906 112.97 35.5548 111.731 35.7419C110.491 35.9291 109.1 36.0233 107.556 36.0233C106.503 36.0233 105.545 35.9291 104.68 35.7419C103.838 35.5546 103.111 35.251 102.502 34.83C101.894 34.3854 101.427 33.8238 101.1 33.1455C100.773 32.4438 100.609 31.5903 100.609 30.5845C100.609 29.6255 100.796 28.8203 101.171 28.1654C101.545 27.5105 102.048 26.9824 102.68 26.5848C103.311 26.1872 104.036 25.9075 104.854 25.7438C105.673 25.5566 106.528 25.4624 107.416 25.4624C108.539 25.4624 109.534 25.5566 110.399 25.7438V25.2169C110.399 24.3983 110.141 23.7208 109.627 23.1829C109.112 22.6215 108.221 22.3393 106.958 22.3393C106.14 22.3393 105.345 22.3996 104.573 22.5167C103.825 22.6339 103.216 22.7736 102.748 22.9373L102.153 19.4619C102.691 19.2747 103.452 19.1134 104.434 18.9732C105.417 18.8095 106.433 18.7271 107.485 18.7271ZM178.746 18.7958C180.547 18.7958 182.499 19.0899 184.604 19.6748V33.6371C184.604 36.327 183.95 38.3161 182.64 39.6025C181.353 40.889 179.271 41.5328 176.394 41.5328C175.365 41.5328 174.371 41.4264 173.412 41.2161C172.476 41.0058 171.576 40.7597 170.71 40.479L171.518 36.8313C172.196 37.0887 172.909 37.3225 173.657 37.533C174.406 37.7668 175.342 37.8825 176.465 37.8825C177.213 37.8825 177.834 37.7884 178.326 37.6011C178.817 37.4374 179.202 37.2036 179.483 36.8995C179.763 36.5955 179.963 36.2338 180.08 35.8128C180.197 35.4152 180.255 34.9836 180.255 34.5159V33.8471C179.647 34.081 179.086 34.2569 178.571 34.374C178.08 34.4911 177.541 34.549 176.956 34.549C174.804 34.549 173.167 33.8716 172.045 32.5149C170.945 31.1583 170.396 29.2754 170.396 26.8662C170.396 24.1529 171.145 22.1301 172.642 20.7969C174.139 19.4637 176.173 18.7958 178.746 18.7958ZM92.3984 18.8301C92.6321 18.8301 92.9597 18.8399 93.3807 18.8644C93.8251 18.8889 94.2921 18.9335 94.7833 19.0036C95.2745 19.0526 95.7681 19.1227 96.2593 19.2163C96.7739 19.2864 97.2288 19.3899 97.6264 19.5306L96.8543 23.5303C96.5736 23.4602 96.2341 23.3901 95.8365 23.32C95.4622 23.2499 95.0772 23.1921 94.6795 23.145C94.2817 23.0749 93.8967 23.0264 93.5225 23.0033C93.1482 22.9788 92.8304 22.969 92.5731 22.969C91.9649 22.969 91.3704 23.0033 90.7856 23.073C90.2009 23.122 89.6038 23.2259 88.9957 23.3896V35.6345H84.6437V20.2341C85.7899 19.813 86.9598 19.4756 88.1527 19.2183C89.369 18.9609 90.7845 18.8301 92.3984 18.8301ZM65.243 19.1467H74.1192V29.3551C74.1192 30.3375 74.2951 31.0753 74.6458 31.5665C75.0201 32.0341 75.6266 32.2681 76.4687 32.2681C76.8665 32.2681 77.3453 32.224 77.9067 32.1289C78.4681 32.0118 79.1012 31.7902 79.8029 31.4627L80.3651 34.9355C79.4762 35.3566 78.6336 35.6362 77.8383 35.7766C77.0664 35.9403 76.3514 36.0221 75.6964 36.0221C74.5737 36.0221 73.6277 35.8579 72.8558 35.5307C72.1073 35.2032 71.4983 34.7355 71.0304 34.1274C70.5861 33.4958 70.2707 32.7364 70.0836 31.8476C69.8964 30.9588 69.8023 29.9413 69.8023 28.7952V22.726H65.2427L65.243 19.1467ZM119.311 19.1467H131.554V22.303C131.227 22.6775 130.76 23.239 130.152 23.9875C129.544 24.7126 128.877 25.5323 128.152 26.4446C127.45 27.3568 126.738 28.3164 126.012 29.3221C125.311 30.3046 124.677 31.2158 124.116 32.0578H131.906V35.6371H118.959V33.0052C119.497 32.1164 120.082 31.2051 120.713 30.2695C121.345 29.3339 121.976 28.4201 122.607 27.5313C123.239 26.619 123.86 25.7535 124.468 24.9349C125.076 24.1162 125.625 23.3809 126.116 22.726H119.311V19.1467ZM153.765 19.1467H158.079V27.7769C158.079 29.2973 158.255 30.4329 158.606 31.1814C158.98 31.9065 159.693 32.2681 160.745 32.2681C161.4 32.2681 162.057 32.2103 162.712 32.0931V19.1465H167.062V35.0746C166.267 35.2849 165.297 35.4946 164.15 35.7053C163.028 35.9161 161.8 36.0219 160.467 36.0219C159.11 36.0219 157.998 35.8337 157.132 35.4596C156.267 35.0851 155.576 34.5598 155.062 33.8815C154.57 33.1798 154.233 32.3625 154.046 31.4269C153.859 30.4913 153.765 29.4618 153.765 28.3391L153.765 19.1467ZM178.571 22.303C176.045 22.303 174.781 23.8243 174.781 26.8651C174.781 28.2217 175.027 29.2633 175.518 29.9883C176.009 30.69 176.782 31.0396 177.835 31.0396C178.302 31.0396 178.733 30.9817 179.131 30.8646C179.552 30.7474 179.927 30.596 180.255 30.4087V22.4802C179.928 22.4101 179.634 22.3616 179.376 22.3385C179.119 22.314 178.852 22.303 178.571 22.303ZM108.293 28.4786C107.848 28.4786 107.415 28.5129 106.994 28.585C106.573 28.634 106.2 28.7257 105.872 28.8664C105.568 29.0066 105.323 29.2046 105.136 29.4616C104.948 29.719 104.854 30.0589 104.854 30.4799C104.854 31.2284 105.134 31.766 105.695 32.0935C106.256 32.3974 106.983 32.5494 107.872 32.5494H109.239C109.684 32.5249 110.072 32.4896 110.399 32.443V28.6535C110.118 28.6094 109.779 28.5731 109.381 28.5496C108.983 28.5054 108.62 28.4786 108.293 28.4786ZM191.458 34.3377H212.211C213.09 34.3377 213.844 34.6524 214.466 35.2747C215.088 35.8969 215.398 36.6441 215.398 37.5241C215.398 38.4041 215.088 39.1589 214.466 39.7811C213.844 40.4033 213.09 40.7158 212.211 40.7158L191.458 40.7109C190.578 40.7109 189.831 40.4036 189.21 39.7811C188.588 39.1589 188.275 38.4041 188.275 37.5241C188.275 36.6441 188.587 35.8969 189.21 35.2747C189.831 34.6525 190.578 34.3377 191.458 34.3377Z" fill="black"/>
<path d="M64.7471 53.3091V106.696H158.049V83.4021H224.824V53.3091H64.7471ZM211.026 61.0603H212.634L218.492 77.7989H216.849L211.026 61.0603ZM161.353 61.1819V71.9906C161.353 72.2557 161.378 72.4737 161.422 72.6467C161.466 72.8196 161.543 72.9583 161.647 73.0621C161.751 73.1659 161.89 73.2476 162.063 73.3053C162.236 73.3514 162.45 73.3897 162.703 73.4244L162.478 74.7745C161.487 74.7514 160.784 74.5371 160.369 74.1336C159.954 73.7301 159.746 73.1021 159.746 72.249V61.458L161.353 61.1819ZM113.202 61.8735C113.49 61.8735 113.733 61.9713 113.929 62.1673C114.136 62.3518 114.24 62.607 114.24 62.9298C114.24 63.2526 114.136 63.5115 113.929 63.7074C113.733 63.8919 113.49 63.9836 113.202 63.9836C112.914 63.9836 112.665 63.8919 112.458 63.7074C112.262 63.5115 112.164 63.2526 112.164 62.9298C112.164 62.607 112.262 62.3518 112.458 62.1673C112.665 61.9713 112.914 61.8735 113.202 61.8735ZM132.993 61.8735C133.281 61.8735 133.521 61.9713 133.717 62.1673C133.924 62.3518 134.028 62.607 134.028 62.9298C134.028 63.2526 133.925 63.5115 133.717 63.7074C133.521 63.8919 133.281 63.9836 132.993 63.9836C132.705 63.9836 132.456 63.8919 132.248 63.7074C132.052 63.5115 131.955 63.2526 131.955 62.9298C131.955 62.607 132.053 62.3518 132.248 62.1673C132.456 61.9713 132.704 61.8735 132.993 61.8735ZM165.295 61.8735C165.583 61.8735 165.823 61.9713 166.019 62.1673C166.226 62.3518 166.331 62.607 166.331 62.9298C166.331 63.2526 166.227 63.5115 166.019 63.7074C165.823 63.8919 165.583 63.9836 165.295 63.9836C165.007 63.9836 164.758 63.8919 164.551 63.7074C164.355 63.5115 164.257 63.2526 164.257 62.9298C164.257 62.607 164.355 62.3518 164.551 62.1673C164.758 61.9713 165.007 61.8735 165.295 61.8735ZM187.625 61.8735C187.913 61.8735 188.153 61.9713 188.349 62.1673C188.556 62.3518 188.661 62.607 188.661 62.9298C188.661 63.2526 188.557 63.5115 188.349 63.7074C188.153 63.8919 187.913 63.9836 187.625 63.9836C187.337 63.9836 187.088 63.8919 186.881 63.7074C186.685 63.5115 186.587 63.2526 186.587 62.9298C186.587 62.607 186.685 62.3518 186.881 62.1673C187.088 61.9713 187.337 61.8735 187.625 61.8735ZM91.0442 65.3843C91.6549 65.3843 92.2195 65.4982 92.738 65.7288C93.2565 65.9479 93.701 66.2662 94.0697 66.6813C94.4499 67.0963 94.7433 67.598 94.9506 68.1859C95.1579 68.7623 95.2622 69.4028 95.2622 70.106C95.2622 70.8207 95.1584 71.4648 94.9506 72.0413C94.7434 72.6177 94.4499 73.1132 94.0697 73.5282C93.7008 73.9432 93.2565 74.2678 92.738 74.4984C92.2195 74.7174 91.6549 74.8251 91.0442 74.8251C90.4335 74.8251 89.869 74.7174 89.3505 74.4984C88.832 74.2678 88.3838 73.9432 88.0036 73.5282C87.6346 73.1131 87.3451 72.6177 87.1377 72.0413C86.9305 71.4648 86.8291 70.8207 86.8291 70.106C86.8291 69.4028 86.9305 68.7623 87.1377 68.1859C87.345 67.598 87.6348 67.0963 88.0036 66.6813C88.3837 66.2662 88.832 65.9479 89.3505 65.7288C89.869 65.4982 90.4335 65.3843 91.0442 65.3843ZM119.511 65.3843C119.764 65.3843 120.017 65.4005 120.271 65.435C120.524 65.458 120.761 65.4928 120.98 65.5389C121.199 65.5737 121.388 65.6144 121.549 65.6605C121.722 65.7066 121.854 65.7475 121.947 65.7821L121.653 67.1651C121.48 67.0729 121.209 66.9812 120.84 66.889C120.471 66.7852 120.029 66.7319 119.511 66.7319C119.061 66.7319 118.67 66.8261 118.336 67.0106C118.002 67.1835 117.835 67.4584 117.835 67.8389C117.835 68.0349 117.869 68.2083 117.939 68.3582C118.019 68.5081 118.133 68.6468 118.283 68.7736C118.444 68.8889 118.64 68.9991 118.87 69.1029C119.101 69.2067 119.378 69.3144 119.701 69.4297C120.127 69.5911 120.506 69.7546 120.84 69.916C121.174 70.0659 121.458 70.243 121.688 70.4505C121.93 70.658 122.113 70.9133 122.24 71.213C122.367 71.5012 122.43 71.8579 122.43 72.2845C122.43 73.1145 122.121 73.7425 121.498 74.1691C120.888 74.5956 120.011 74.8074 118.871 74.8074C118.075 74.8074 117.454 74.7406 117.005 74.6022C116.555 74.4754 116.25 74.375 116.088 74.3059L116.382 72.9228C116.566 72.992 116.859 73.096 117.263 73.2344C117.666 73.3727 118.202 73.4421 118.87 73.4421C119.527 73.4421 120.013 73.3567 120.324 73.1837C120.646 73.0108 120.807 72.7333 120.807 72.3529C120.807 71.9609 120.65 71.6488 120.339 71.4182C120.028 71.1876 119.516 70.9287 118.802 70.6405C118.456 70.5022 118.122 70.3634 117.799 70.2251C117.488 70.0752 117.217 69.9043 116.987 69.7083C116.757 69.5124 116.573 69.2757 116.435 68.9991C116.297 68.7224 116.227 68.3817 116.227 67.9782C116.227 67.1828 116.521 66.5548 117.108 66.0936C117.696 65.621 118.497 65.3843 119.511 65.3843ZM127.218 65.3843C127.471 65.3843 127.726 65.4005 127.98 65.435C128.233 65.458 128.47 65.4928 128.689 65.5389C128.908 65.5737 129.097 65.6144 129.258 65.6605C129.431 65.7066 129.563 65.7475 129.656 65.7821L129.362 67.1651C129.189 67.0729 128.918 66.9812 128.549 66.889C128.181 66.7852 127.736 66.7319 127.218 66.7319C126.769 66.7319 126.377 66.8261 126.043 67.0106C125.709 67.1835 125.542 67.4584 125.542 67.8389C125.542 68.0349 125.576 68.2083 125.646 68.3582C125.727 68.5081 125.843 68.6468 125.993 68.7736C126.154 68.8889 126.35 68.9991 126.58 69.1029C126.81 69.2067 127.088 69.3144 127.41 69.4297C127.836 69.5911 128.215 69.7546 128.549 69.916C128.884 70.0659 129.167 70.243 129.398 70.4505C129.64 70.658 129.823 70.9133 129.95 71.213C130.076 71.5012 130.14 71.8579 130.14 72.2845C130.14 73.1145 129.83 73.7425 129.208 74.1691C128.597 74.5956 127.721 74.8074 126.58 74.8074C125.785 74.8074 125.164 74.7406 124.714 74.6022C124.265 74.4754 123.959 74.375 123.798 74.3059L124.092 72.9228C124.276 72.992 124.569 73.096 124.973 73.2344C125.376 73.3727 125.912 73.4421 126.58 73.4421C127.237 73.4421 127.72 73.3567 128.031 73.1837C128.354 73.0108 128.515 72.7333 128.515 72.3529C128.515 71.9609 128.36 71.6488 128.049 71.4182C127.738 71.1876 127.226 70.9287 126.512 70.6405C126.166 70.5022 125.832 70.3634 125.509 70.2251C125.198 70.0752 124.927 69.9043 124.697 69.7083C124.466 69.5124 124.281 69.2757 124.142 68.9991C124.004 68.7224 123.934 68.3817 123.934 67.9782C123.934 67.1828 124.23 66.5548 124.818 66.0936C125.406 65.621 126.204 65.3843 127.218 65.3843ZM140.284 65.3843C140.895 65.3843 141.459 65.4982 141.978 65.7288C142.496 65.9479 142.941 66.2662 143.309 66.6813C143.69 67.0963 143.983 67.598 144.191 68.1859C144.398 68.7623 144.502 69.4028 144.502 70.106C144.502 70.8207 144.398 71.4648 144.191 72.0413C143.983 72.6177 143.69 73.1132 143.309 73.5282C142.941 73.9432 142.496 74.2678 141.978 74.4984C141.459 74.7174 140.895 74.8251 140.284 74.8251C139.673 74.8251 139.109 74.7174 138.59 74.4984C138.072 74.2678 137.624 73.9432 137.243 73.5282C136.875 73.1131 136.587 72.6177 136.38 72.0413C136.173 71.4648 136.068 70.8207 136.068 70.106C136.068 69.4028 136.172 68.7623 136.38 68.1859C136.587 67.598 136.875 67.0963 137.243 66.6813C137.624 66.2662 138.072 65.9479 138.59 65.7288C139.109 65.4982 139.673 65.3843 140.284 65.3843ZM153.662 65.3843C154.307 65.3843 154.849 65.4698 155.287 65.6427C155.736 65.8041 156.093 66.0407 156.358 66.352C156.634 66.6517 156.83 67.0146 156.945 67.4412C157.061 67.8562 157.12 68.317 157.12 68.8242V74.4452C156.982 74.4682 156.784 74.5029 156.53 74.549C156.288 74.5838 156.014 74.6183 155.703 74.6529C155.391 74.6877 155.051 74.716 154.682 74.739C154.325 74.7738 153.969 74.7922 153.611 74.7922C153.104 74.7922 152.638 74.7389 152.211 74.6351C151.785 74.5314 151.416 74.3703 151.105 74.1513C150.794 73.9208 150.551 73.621 150.378 73.2521C150.205 72.8832 150.12 72.4385 150.12 71.9197C150.12 71.424 150.218 70.9979 150.414 70.6405C150.621 70.2831 150.896 69.9957 151.242 69.7767C151.588 69.5577 151.991 69.3966 152.452 69.2929C152.913 69.1891 153.398 69.1358 153.905 69.1358C154.066 69.1358 154.234 69.1481 154.407 69.1711C154.58 69.1829 154.74 69.205 154.89 69.2395C155.051 69.2626 155.19 69.2876 155.305 69.3104C155.42 69.3335 155.5 69.3497 155.546 69.3611V68.9127C155.546 68.6476 155.516 68.3861 155.459 68.1325C155.402 67.8673 155.298 67.637 155.148 67.441C154.998 67.2335 154.793 67.0725 154.528 66.9572C154.274 66.8304 153.94 66.7672 153.525 66.7672C152.995 66.7672 152.528 66.8079 152.125 66.8888C151.733 66.958 151.437 67.0335 151.241 67.1142L151.051 65.7818C151.258 65.6896 151.605 65.6041 152.089 65.5235C152.573 65.4312 153.097 65.3843 153.662 65.3843ZM172.675 65.3843C173.078 65.3843 173.48 65.4191 173.883 65.4882C174.286 65.5574 174.674 65.6676 175.042 65.8175L174.678 67.1828C174.436 67.0675 174.155 66.9759 173.832 66.9067C173.521 66.8376 173.187 66.8028 172.83 66.8028C171.931 66.8028 171.24 67.084 170.756 67.6489C170.284 68.2138 170.047 69.0375 170.047 70.1212C170.047 70.6054 170.098 71.0501 170.202 71.4536C170.317 71.857 170.49 72.2039 170.721 72.4921C170.963 72.7804 171.268 73.0045 171.637 73.166C172.006 73.3158 172.454 73.3914 172.984 73.3914C173.41 73.3914 173.798 73.3507 174.144 73.2698C174.489 73.1891 174.76 73.1012 174.956 73.0089L175.179 74.359C175.087 74.4167 174.954 74.4736 174.782 74.5313C174.609 74.5774 174.413 74.6183 174.195 74.6529C173.976 74.699 173.739 74.7337 173.486 74.7568C173.244 74.7916 173.007 74.8074 172.777 74.8074C172.051 74.8074 171.413 74.6935 170.86 74.4629C170.319 74.2323 169.858 73.9103 169.478 73.4953C169.109 73.0802 168.832 72.5884 168.647 72.0235C168.463 71.4471 168.372 70.8129 168.372 70.1212C168.372 69.4295 168.469 68.7978 168.665 68.2214C168.872 67.645 169.16 67.1469 169.528 66.7319C169.897 66.3054 170.348 65.9771 170.878 65.7466C171.419 65.5045 172.018 65.3843 172.675 65.3843ZM203.854 65.3843C204.107 65.3843 204.36 65.4005 204.613 65.435C204.866 65.458 205.103 65.4928 205.322 65.5389C205.541 65.5737 205.73 65.6144 205.892 65.6605C206.065 65.7066 206.197 65.7475 206.289 65.7821L205.995 67.1651C205.822 67.0729 205.551 66.9812 205.182 66.889C204.813 66.7852 204.372 66.7319 203.853 66.7319C203.404 66.7319 203.013 66.8261 202.678 67.0106C202.344 67.1835 202.177 67.4584 202.177 67.8389C202.177 68.0349 202.211 68.2083 202.281 68.3582C202.362 68.5081 202.475 68.6468 202.625 68.7736C202.787 68.8889 202.983 68.9991 203.213 69.1029C203.443 69.2067 203.721 69.3144 204.043 69.4297C204.469 69.5911 204.848 69.7546 205.182 69.916C205.517 70.0659 205.8 70.243 206.031 70.4505C206.273 70.658 206.456 70.9133 206.582 71.213C206.709 71.5012 206.775 71.8579 206.775 72.2845C206.775 73.1145 206.463 73.7425 205.841 74.1691C205.23 74.5956 204.354 74.8074 203.213 74.8074C202.418 74.8074 201.796 74.7406 201.347 74.6022C200.898 74.4754 200.592 74.375 200.431 74.3059L200.724 72.9228C200.909 72.992 201.202 73.096 201.606 73.2344C202.009 73.3727 202.545 73.4421 203.213 73.4421C203.87 73.4421 204.355 73.3567 204.666 73.1837C204.989 73.0108 205.15 72.7333 205.15 72.3529C205.15 71.9609 204.993 71.6488 204.682 71.4182C204.37 71.1876 203.859 70.9287 203.145 70.6405C202.799 70.5022 202.465 70.3634 202.142 70.2251C201.831 70.0752 201.56 69.9043 201.33 69.7083C201.099 69.5124 200.916 69.2757 200.778 68.9991C200.639 68.7224 200.57 68.3817 200.57 67.9782C200.57 67.1828 200.863 66.5548 201.451 66.0936C202.039 65.621 202.84 65.3843 203.854 65.3843ZM73.8815 65.4196C74.5729 65.4196 75.1969 65.5274 75.75 65.7464C76.3031 65.9654 76.7735 66.2776 77.1653 66.6811C77.5572 67.0846 77.8566 67.5801 78.064 68.168C78.283 68.7444 78.3932 69.3947 78.3932 70.121C78.3932 70.8012 78.3016 71.4317 78.1174 72.0082C77.9444 72.5846 77.6858 73.0801 77.3402 73.4951C76.9943 73.9101 76.5685 74.2322 76.0616 74.4627C75.5661 74.6933 74.9955 74.8072 74.3502 74.8072C73.8318 74.8072 73.3711 74.7404 72.9679 74.602C72.5759 74.4637 72.2801 74.3312 72.0842 74.2043V77.7988H70.4792V65.8857C70.8594 65.7935 71.3298 65.6956 71.8944 65.5918C72.4705 65.4765 73.1326 65.4196 73.8815 65.4196ZM83.9757 65.4196C84.1139 65.4196 84.2686 65.4294 84.4416 65.4525C84.6258 65.4642 84.8056 65.4887 84.9783 65.5234C85.1513 65.5464 85.306 65.5749 85.4442 65.6095C85.5941 65.6326 85.7044 65.6551 85.7734 65.6779L85.4976 67.0787C85.3707 67.0326 85.1566 66.9818 84.8571 66.9242C84.569 66.855 84.1964 66.8203 83.7356 66.8203C83.4362 66.8203 83.1363 66.8551 82.8367 66.9242C82.5486 66.9818 82.3566 67.0202 82.2645 67.0433V74.602H80.657V65.9895C81.0372 65.8512 81.5102 65.7248 82.0748 65.6095C82.6394 65.4827 83.2728 65.4196 83.9757 65.4196ZM101.088 65.4196C101.664 65.4196 102.147 65.4989 102.538 65.6602C102.93 65.8101 103.258 66.0343 103.523 66.334C103.604 66.2764 103.73 66.1971 103.903 66.0934C104.076 65.9896 104.29 65.8918 104.543 65.7996C104.797 65.6958 105.078 65.6078 105.389 65.5387C105.7 65.4579 106.034 65.4196 106.392 65.4196C107.083 65.4196 107.647 65.5211 108.085 65.7287C108.523 65.9246 108.864 66.2084 109.106 66.5773C109.359 66.9462 109.526 67.3847 109.607 67.8919C109.699 68.3992 109.746 68.9516 109.746 69.5511V74.6021H108.138V69.8981C108.138 69.3678 108.109 68.9107 108.052 68.5303C108.008 68.1498 107.908 67.834 107.758 67.5804C107.62 67.3267 107.424 67.1409 107.171 67.0256C106.929 66.8988 106.611 66.8356 106.219 66.8356C105.677 66.8356 105.229 66.9112 104.872 67.061C104.526 67.1994 104.29 67.3257 104.163 67.441C104.255 67.7408 104.325 68.069 104.371 68.4264C104.415 68.7838 104.439 69.1591 104.439 69.5511V74.6021H102.832V69.8981C102.832 69.3678 102.802 68.9107 102.746 68.5303C102.688 68.1498 102.584 67.834 102.434 67.5804C102.296 67.3267 102.1 67.1409 101.847 67.0256C101.605 66.8988 101.293 66.8356 100.912 66.8356C100.751 66.8356 100.578 66.842 100.393 66.8533C100.209 66.865 100.032 66.8832 99.8591 66.9064C99.6979 66.9182 99.5467 66.9339 99.4085 66.9571C99.2703 66.9802 99.1787 66.9988 99.1327 67.0103V74.602H97.5249V65.8679C97.8939 65.7756 98.3791 65.6778 98.9782 65.5741C99.5889 65.4703 100.293 65.4196 101.088 65.4196ZM112.407 65.6096H114.015V74.6021H112.407V65.6096ZM132.198 65.6096H133.803V74.6021H132.198V65.6096ZM164.5 65.6096H166.105V74.6021H164.5V65.6096ZM176.804 65.6096H178.412V70.3136C178.412 71.4087 178.585 72.1916 178.931 72.6643C179.277 73.1369 179.857 73.3735 180.675 73.3735C180.848 73.3735 181.028 73.3671 181.212 73.3559C181.396 73.3441 181.57 73.3319 181.731 73.3206C181.892 73.2975 182.035 73.2814 182.162 73.2699C182.3 73.2468 182.398 73.2248 182.456 73.2015V65.6098H184.063V74.3414C183.694 74.4337 183.206 74.5315 182.595 74.6352C181.996 74.739 181.299 74.7923 180.504 74.7923C179.812 74.7923 179.232 74.6944 178.759 74.4985C178.287 74.291 177.906 74.0011 177.618 73.6321C177.33 73.2632 177.121 72.8309 176.995 72.3352C176.868 71.828 176.805 71.2693 176.805 70.6583L176.804 65.6096ZM186.83 65.6096H188.435V74.6021H186.83V65.6096ZM191.099 65.6096H192.706V70.3136C192.706 71.4087 192.877 72.1916 193.223 72.6643C193.569 73.1369 194.152 73.3735 194.97 73.3735C195.143 73.3735 195.322 73.3671 195.506 73.3559C195.691 73.3441 195.862 73.3319 196.023 73.3206C196.184 73.2975 196.329 73.2814 196.456 73.2699C196.594 73.2468 196.692 73.2248 196.75 73.2015V65.6098H198.357V74.3414C197.989 74.4337 197.499 74.5315 196.889 74.6352C196.29 74.739 195.593 74.7923 194.797 74.7923C194.106 74.7923 193.523 74.6944 193.051 74.4985C192.578 74.291 192.199 74.0011 191.911 73.6321C191.623 73.2632 191.415 72.8309 191.288 72.3352C191.162 71.828 191.098 71.2693 191.098 70.6583L191.099 65.6096ZM91.0442 66.8027C90.2607 66.8027 89.6391 67.1024 89.1783 67.7019C88.729 68.2899 88.5049 69.0913 88.5049 70.1058C88.5049 71.1203 88.7287 71.9255 89.1783 72.5249C89.6393 73.1129 90.2607 73.409 91.0442 73.409C91.8277 73.409 92.4456 73.1129 92.895 72.5249C93.356 71.9255 93.5862 71.1203 93.5862 70.1058C93.5862 69.0913 93.3559 68.2899 92.895 67.7019C92.4457 67.1025 91.8277 66.8027 91.0442 66.8027ZM140.284 66.8027C139.501 66.8027 138.879 67.1024 138.418 67.7019C137.969 68.2899 137.745 69.0913 137.745 70.1058C137.745 71.1203 137.969 71.9255 138.418 72.5249C138.879 73.1129 139.501 73.409 140.284 73.409C141.068 73.409 141.685 73.1129 142.135 72.5249C142.596 71.9255 142.826 71.1203 142.826 70.1058C142.826 69.0913 142.596 68.2899 142.135 67.7019C141.686 67.1025 141.068 66.8027 140.284 66.8027ZM73.8664 66.8533C73.3824 66.8533 73.0011 66.872 72.7246 66.9065C72.4595 66.9413 72.2455 66.9795 72.0841 67.0256V72.6997C72.2801 72.8611 72.5632 73.0159 72.9321 73.1658C73.301 73.3157 73.7046 73.3912 74.1424 73.3912C74.6034 73.3912 74.9944 73.3095 75.317 73.1481C75.6511 72.9751 75.9223 72.7447 76.1297 72.4565C76.337 72.1568 76.4854 71.8099 76.578 71.418C76.6701 71.0145 76.7172 70.5822 76.7172 70.121C76.7172 69.072 76.4584 68.2668 75.9399 67.7019C75.4214 67.137 74.7306 66.8533 73.8664 66.8533ZM154.041 70.4326C153.799 70.4326 153.541 70.4512 153.264 70.4858C152.999 70.5206 152.753 70.5959 152.522 70.7112C152.303 70.815 152.118 70.9636 151.968 71.1596C151.818 71.344 151.743 71.593 151.743 71.9043C151.743 72.4807 151.928 72.882 152.297 73.1126C152.666 73.3316 153.167 73.4419 153.801 73.4419C154.181 73.4419 154.515 73.4355 154.804 73.4242C155.103 73.4012 155.35 73.3665 155.545 73.3204V70.6404C155.43 70.5827 155.241 70.5381 154.976 70.5035C154.722 70.4575 154.41 70.4326 154.041 70.4326ZM85.7909 84.7952V95.6013C85.7909 95.8665 85.8153 96.087 85.859 96.2599C85.903 96.4328 85.9806 96.5716 86.0844 96.6753C86.1883 96.7791 86.3269 96.8583 86.4993 96.916C86.6723 96.9621 86.8838 97.003 87.1373 97.0376L86.9144 98.3877C85.9234 98.3647 85.2203 98.1503 84.8055 97.7468C84.3905 97.3433 84.1826 96.7153 84.1826 95.8622V85.0713L85.7909 84.7952ZM94.9152 84.7952V89.6182C95.1112 89.4914 95.4071 89.3588 95.7988 89.2205C96.202 89.0821 96.6627 89.0128 97.1812 89.0128C97.8264 89.0128 98.3972 89.1292 98.8927 89.3598C99.3997 89.5904 99.8255 89.9124 100.171 90.3275C100.517 90.7425 100.776 91.238 100.948 91.8144C101.133 92.3908 101.224 93.025 101.224 93.7167C101.224 94.443 101.114 95.1021 100.895 95.69C100.688 96.2664 100.388 96.7557 99.9962 97.1592C99.6043 97.5627 99.134 97.8723 98.581 98.0914C98.0279 98.3104 97.404 98.4207 96.7126 98.4207C95.9637 98.4207 95.3013 98.3699 94.7252 98.2661C94.1491 98.1624 93.6786 98.0583 93.3099 97.9546V85.0713L94.9152 84.7952ZM89.7303 85.4867C90.0183 85.4867 90.261 85.5845 90.4569 85.7805C90.6641 85.965 90.7685 86.2177 90.7685 86.5405C90.7685 86.8632 90.6646 87.1221 90.4569 87.3181C90.2609 87.5026 90.0184 87.5967 89.7303 87.5967C89.4422 87.5967 89.1958 87.5026 88.9884 87.3181C88.7924 87.1221 88.695 86.8632 88.695 86.5405C88.695 86.2177 88.7929 85.965 88.9884 85.7805C89.1956 85.5845 89.4422 85.4867 89.7303 85.4867ZM143.535 85.4867C143.823 85.4867 144.066 85.5845 144.261 85.7805C144.469 85.965 144.57 86.2177 144.57 86.5405C144.57 86.8632 144.469 87.1221 144.261 87.3181C144.065 87.5026 143.823 87.5967 143.535 87.5967C143.247 87.5967 142.998 87.5026 142.791 87.3181C142.595 87.1221 142.497 86.8632 142.497 86.5405C142.497 86.2177 142.595 85.965 142.791 85.7805C142.998 85.5845 143.247 85.4867 143.535 85.4867ZM121.326 86.4366V89.2205H124.729V90.5706H121.326V94.7198C121.326 95.1694 121.361 95.5447 121.43 95.8445C121.499 96.1327 121.601 96.3631 121.739 96.536C121.878 96.6974 122.051 96.8139 122.258 96.8831C122.466 96.9522 122.709 96.9869 122.985 96.9869C123.469 96.9869 123.854 96.9336 124.142 96.8299C124.441 96.7146 124.65 96.6353 124.765 96.5892L125.076 97.9191C124.915 97.9998 124.632 98.0976 124.228 98.2129C123.825 98.3397 123.364 98.4029 122.846 98.4029C122.235 98.4029 121.73 98.3299 121.327 98.18C120.935 98.0186 120.617 97.782 120.375 97.4707C120.133 97.1595 119.96 96.7779 119.856 96.3283C119.764 95.8672 119.719 95.337 119.719 94.7375V86.7153L121.326 86.4366ZM137.294 86.4366V89.2205H140.699V90.5706H137.294V94.7198C137.294 95.1694 137.328 95.5447 137.398 95.8445C137.467 96.1327 137.571 96.3631 137.71 96.536C137.848 96.6974 138.021 96.8139 138.229 96.8831C138.436 96.9522 138.679 96.9869 138.955 96.9869C139.439 96.9869 139.824 96.9336 140.112 96.8299C140.412 96.7146 140.62 96.6353 140.735 96.5892L141.047 97.9191C140.885 97.9998 140.602 98.0976 140.198 98.2129C139.795 98.3397 139.335 98.4029 138.816 98.4029C138.206 98.4029 137.698 98.3299 137.295 98.18C136.903 98.0186 136.587 97.782 136.345 97.4707C136.103 97.1595 135.93 96.7779 135.826 96.3283C135.734 95.8672 135.689 95.337 135.689 94.7375V86.7153L137.294 86.4366ZM107.083 88.9976C108.293 88.9976 109.22 89.3766 109.865 90.1374C110.51 90.8868 110.835 92.0351 110.835 93.5799V93.856C110.835 93.9598 110.83 94.0576 110.815 94.1498H104.663C104.732 95.0836 105.004 95.7935 105.476 96.2776C105.948 96.7618 106.684 97.0021 107.686 97.0021C108.251 97.0021 108.724 96.9575 109.104 96.8653C109.496 96.7616 109.789 96.6637 109.985 96.5715L110.21 97.9191C110.014 98.0228 109.668 98.1331 109.172 98.2484C108.688 98.3637 108.136 98.4206 107.514 98.4206C106.73 98.4206 106.052 98.3067 105.476 98.0761C104.911 97.834 104.445 97.5058 104.076 97.0908C103.707 96.6757 103.43 96.1839 103.245 95.619C103.072 95.0426 102.985 94.4146 102.985 93.7344C102.985 92.939 103.101 92.2478 103.332 91.6598C103.562 91.0603 103.868 90.5649 104.248 90.1729C104.628 89.7809 105.067 89.4874 105.562 89.2914C106.058 89.0954 106.564 88.9976 107.083 88.9976ZM129.674 88.9976C130.319 88.9976 130.861 89.083 131.299 89.2559C131.748 89.4174 132.105 89.6539 132.37 89.9652C132.646 90.2649 132.842 90.6279 132.957 91.0544C133.072 91.4694 133.129 91.9302 133.129 92.4375V98.0584C132.991 98.0814 132.795 98.1161 132.542 98.1623C132.3 98.1969 132.022 98.2315 131.711 98.2661C131.4 98.3007 131.062 98.3292 130.694 98.3522C130.336 98.3868 129.977 98.4029 129.62 98.4029C129.113 98.4029 128.646 98.3521 128.22 98.2484C127.794 98.1446 127.425 97.9836 127.114 97.7646C126.803 97.534 126.562 97.2342 126.39 96.8653C126.217 96.4964 126.129 96.0517 126.129 95.5329C126.129 95.0372 126.227 94.6111 126.423 94.2537C126.63 93.8963 126.907 93.609 127.253 93.3899C127.599 93.1709 128.003 93.0073 128.464 92.9036C128.925 92.7998 129.407 92.7491 129.914 92.7491C130.075 92.7491 130.243 92.7615 130.416 92.7845C130.589 92.796 130.752 92.8183 130.902 92.8529C131.063 92.8759 131.199 92.8982 131.314 92.9213C131.429 92.9443 131.511 92.963 131.557 92.9745V92.5236C131.557 92.2584 131.528 91.9996 131.471 91.7459C131.413 91.4808 131.309 91.2504 131.159 91.0544C131.009 90.8469 130.802 90.6859 130.536 90.5706C130.283 90.4438 129.949 90.3806 129.534 90.3806C129.004 90.3806 128.537 90.4215 128.134 90.5022C127.742 90.5714 127.449 90.6444 127.253 90.7251L127.063 89.3952C127.27 89.303 127.617 89.2151 128.101 89.1343C128.585 89.0421 129.109 88.9976 129.674 88.9976ZM149.844 88.9976C150.097 88.9976 150.35 89.0137 150.603 89.0482C150.857 89.0712 151.093 89.1059 151.312 89.1521C151.531 89.1869 151.72 89.2276 151.882 89.2736C152.055 89.3197 152.187 89.3606 152.279 89.3952L151.986 90.7783C151.813 90.6861 151.542 90.5944 151.173 90.5022C150.804 90.3984 150.362 90.3452 149.844 90.3452C149.395 90.3452 149.001 90.4368 148.667 90.6213C148.333 90.7942 148.165 91.0717 148.165 91.4521C148.165 91.6481 148.2 91.8215 148.269 91.9714C148.35 92.1213 148.466 92.26 148.616 92.3868C148.777 92.5021 148.973 92.6098 149.204 92.7136C149.434 92.8173 149.711 92.9276 150.034 93.0429C150.46 93.2043 150.839 93.3653 151.173 93.5267C151.507 93.6766 151.791 93.8562 152.021 94.0637C152.263 94.2712 152.447 94.5239 152.573 94.8237C152.7 95.1119 152.763 95.4711 152.763 95.8977C152.763 96.7277 152.454 97.3558 151.832 97.7823C151.221 98.2088 150.344 98.4206 149.204 98.4206C148.409 98.4206 147.787 98.3512 147.338 98.2129C146.889 98.0861 146.583 97.9882 146.421 97.9191L146.715 96.536C146.9 96.6052 147.193 96.7092 147.596 96.8476C148 96.9859 148.536 97.0553 149.204 97.0553C149.861 97.0553 150.344 96.9673 150.655 96.7944C150.978 96.6215 151.141 96.3465 151.141 95.9661C151.141 95.5741 150.983 95.2619 150.672 95.0314C150.361 94.8008 149.85 94.5419 149.136 94.2537C148.79 94.1154 148.456 93.9766 148.133 93.8383C147.822 93.6884 147.551 93.515 147.32 93.319C147.09 93.123 146.904 92.8864 146.766 92.6097C146.628 92.3331 146.558 91.9949 146.558 91.5914C146.558 90.796 146.854 90.168 147.442 89.7068C148.029 89.2342 148.83 88.9976 149.844 88.9976ZM116.468 89.0304C116.606 89.0304 116.763 89.0427 116.936 89.0657C117.12 89.0775 117.298 89.0995 117.47 89.1341C117.643 89.1571 117.801 89.1856 117.939 89.2202C118.089 89.2432 118.196 89.2682 118.266 89.2911L117.99 90.6919C117.863 90.6458 117.649 90.5925 117.349 90.5349C117.061 90.4657 116.689 90.431 116.228 90.431C115.928 90.431 115.629 90.4657 115.329 90.5349C115.041 90.5925 114.849 90.6334 114.757 90.6565V98.2127H113.152V89.6027C113.532 89.4644 114.002 89.3355 114.567 89.2202C115.132 89.0934 115.765 89.0304 116.468 89.0304ZM70.4611 89.1875L77.9273 92.3513V93.7343L70.4611 96.8982L70.0105 95.5683L76.1474 93.0428L70.0105 90.5173L70.4611 89.1875ZM88.9353 89.2203H90.5429V98.2128H88.9353V89.2203ZM142.74 89.2203H144.348V98.2128H142.74V89.2203ZM107.068 90.3627C106.699 90.3627 106.368 90.4383 106.08 90.5882C105.803 90.7265 105.57 90.9098 105.374 91.1404C105.178 91.3709 105.021 91.636 104.905 91.9358C104.802 92.2355 104.733 92.5415 104.698 92.8527H109.159C109.169 92.1265 108.984 91.5331 108.604 91.072C108.235 90.5993 107.724 90.3627 107.068 90.3627ZM96.9735 90.4311C96.5356 90.4311 96.1321 90.5067 95.7634 90.6566C95.3945 90.8064 95.1111 90.9613 94.9152 91.1227V96.812C95.0764 96.8581 95.3032 96.9052 95.5912 96.9513C95.8905 96.9859 96.2597 97.0019 96.6975 97.0019C97.5617 97.0019 98.2526 96.7208 98.7711 96.1559C99.2896 95.5795 99.5484 94.7656 99.5484 93.7165C99.5484 93.2554 99.4994 92.8231 99.4092 92.4196C99.3171 92.0161 99.1687 91.6718 98.961 91.3836C98.7538 91.0838 98.4823 90.8534 98.1483 90.692C97.8254 90.5191 97.4344 90.4311 96.9735 90.4311ZM130.053 94.0458C129.811 94.0458 129.553 94.0644 129.276 94.099C129.011 94.1336 128.762 94.2067 128.532 94.3219C128.313 94.4257 128.13 94.5768 127.98 94.7728C127.83 94.9573 127.754 95.2038 127.754 95.515C127.754 96.0914 127.94 96.4953 128.309 96.7258C128.678 96.9449 129.176 97.0551 129.81 97.0551C130.19 97.0551 130.525 97.049 130.813 97.0374C131.112 97.0144 131.361 96.9796 131.557 96.9335V94.2535C131.442 94.1959 131.252 94.1488 130.987 94.1142C130.734 94.0681 130.422 94.0458 130.053 94.0458Z" fill="black"/>
</svg>
