<svg width="49" height="50" viewBox="0 0 49 50" fill="none" xmlns="http://www.w3.org/2000/svg">
<path d="M5.10449 40.8548C7.14616 40.8548 9.18783 39.2215 9.18783 36.7715C9.18783 34.3215 9.18783 27.2437 9.18783 22.4798C9.18783 15.334 15.517 8.18817 24.5003 8.18817" stroke="#FDBE32" stroke-width="2" stroke-linecap="round"/>
<path d="M43.8958 40.8548C41.8542 40.8548 39.8125 39.2215 39.8125 36.7715V22.4798C39.8125 15.334 33.4833 8.18817 24.5 8.18817" stroke="#FDBE32" stroke-width="2" stroke-linecap="round"/>
<path d="M24.5003 38.8131C30.1382 38.8131 34.7087 36.5279 34.7087 33.709C34.7087 30.89 30.1382 28.6048 24.5003 28.6048C18.8624 28.6048 14.292 30.89 14.292 33.709C14.292 36.5279 18.8624 38.8131 24.5003 38.8131Z" stroke="#FDBE32" stroke-width="2" stroke-linecap="round" stroke-linejoin="round"/>
<path d="M15.824 30.6465C14.8786 29.3494 14.292 27.5417 14.292 25.5423C14.292 21.5958 16.5772 18.3965 19.3962 18.3965C22.2151 18.3965 24.5003 21.5958 24.5003 25.5423C24.5003 26.4721 24.3735 27.3602 24.1428 28.175" stroke="#FDBE32" stroke-width="2" stroke-linecap="round" stroke-linejoin="round"/>
<path d="M33.1763 30.6465C34.1218 29.3494 34.7083 27.5417 34.7083 25.5423C34.7083 21.5958 32.4231 18.3965 29.6042 18.3965C26.7852 18.3965 24.5 21.5958 24.5 25.5423C24.5 26.4721 24.6268 27.3602 24.8575 28.175" stroke="#FDBE32" stroke-width="2" stroke-linecap="round" stroke-linejoin="round"/>
<path d="M19.3955 24.5215V28.6048" stroke="#FDBE32" stroke-width="2" stroke-linecap="round" stroke-linejoin="round"/>
<path d="M29.6045 24.5215V28.6048" stroke="#FDBE32" stroke-width="2" stroke-linecap="round" stroke-linejoin="round"/>
</svg>
