<svg width="369" height="357" viewBox="0 0 369 357" fill="none" xmlns="http://www.w3.org/2000/svg">
<g clip-path="url(#clip0_588_5182)">
<path d="M354.075 85.6901C353.069 86.4304 311.357 119.257 311.357 119.257V289.771C311.357 302.121 301.334 312.17 289.016 312.17H67.0381C54.7051 312.17 44.6973 302.121 44.6973 289.771V67.2132C44.6973 54.8479 54.7051 44.814 67.0381 44.814H267.854C285.387 32.1653 303.533 20.0836 322.04 8.74228C312.3 3.16612 301.019 0 289.016 0H67.0381C30.0705 0 0 30.149 0 67.2132V289.771C0 326.835 30.0705 356.984 67.0381 356.984H289.016C325.984 356.984 356.054 326.819 356.054 289.771V84.2094L354.075 85.6901Z" fill="#B30B00"/>
<path d="M335.049 21.7693C310.823 36.4815 287.351 52.3279 264.822 69.2296C242.324 86.1629 220.36 103.758 199.182 122.156C193.275 127.322 187.415 132.505 181.57 137.734C179.732 135.561 177.894 133.371 176.134 131.119L168.043 120.565L163.99 115.304L160.188 109.838L152.521 98.9376C151.201 97.1577 150.038 95.2517 148.86 93.3615C147.666 91.4712 146.331 89.6913 144.791 88.0373C143.236 86.3834 141.523 84.824 139.544 83.422C137.548 82.0201 135.365 80.7285 132.568 79.7834L129.394 78.6965C127.132 77.9404 124.744 77.4836 122.246 77.3576C107.494 76.6488 94.9721 88.0531 94.2494 102.828C93.6681 114.737 99.1668 123.258 104.901 131.449L113.621 143.704L118.004 149.816L122.702 155.707L132.144 167.458C134.689 170.483 137.36 173.412 140.015 176.342C139.088 177.24 138.161 178.106 137.234 179.004L122.262 193.748C117.329 198.726 112.348 203.64 107.446 208.681C102.529 213.69 97.8314 218.904 93.5581 224.559C91.4057 227.347 89.3633 230.292 87.4309 233.317C86.4725 234.829 85.5299 236.373 84.65 237.979C83.7545 239.57 82.9219 241.193 82.0892 243.004C79.1984 249.321 79.0727 256.96 82.4977 263.623C88.4049 275.106 102.482 279.627 113.935 273.704L115.286 272.996C116.763 272.24 118.271 271.326 119.701 270.381C121.146 269.436 122.545 268.459 123.943 267.451C126.739 265.435 129.379 263.308 131.987 261.119C137.203 256.74 142.073 252.03 146.786 247.147C151.468 242.248 156.276 237.444 161.02 232.592L175.443 218.211C176.653 217.029 177.862 215.864 179.072 214.682C181.35 216.635 183.644 218.557 186.001 220.432C187.949 222.038 189.913 223.629 191.892 225.204L198.019 229.725L204.147 234.23C206.189 235.727 208.341 237.097 210.447 238.531C212.552 239.948 214.673 241.366 216.794 242.752C218.93 244.138 221.161 245.414 223.329 246.737C225.529 248.045 227.681 249.384 229.912 250.659L236.668 254.361C238.899 255.606 241.24 256.74 243.565 257.874C245.89 259.008 248.184 260.174 250.603 261.245C253.007 262.316 255.364 263.387 257.925 264.379C259.213 264.883 260.36 265.387 261.742 265.892L266.189 267.482C275.411 270.775 286.047 267.624 291.86 259.165C298.773 249.069 296.228 235.27 286.157 228.323L282.355 225.709L282.056 225.504C281.994 225.456 281.695 225.283 281.522 225.189L280.313 224.496C279.527 224.07 278.584 223.472 277.72 222.983C275.976 221.991 274.185 220.81 272.394 219.707C270.603 218.652 268.812 217.423 267.021 216.242C265.23 215.06 263.439 213.895 261.695 212.603L256.385 208.886C254.625 207.625 252.897 206.271 251.153 204.963C249.425 203.64 247.666 202.38 245.953 200.994C244.272 199.592 242.559 198.222 240.847 196.867C239.15 195.481 237.406 194.189 235.757 192.74L230.792 188.408L225.827 184.092C224.241 182.564 222.638 181.052 221.02 179.571C220.109 178.752 219.213 177.917 218.318 177.083C223.691 172.073 229.08 167.096 234.516 162.181L249.567 148.493L264.837 135.104C269.912 130.599 275.081 126.267 280.234 121.872L287.964 115.304L291.829 112.012L295.756 108.83L311.436 96.0235C316.652 91.739 322.041 87.7381 327.335 83.5638L335.285 77.3103C337.924 75.2153 340.674 73.3094 343.36 71.2931L359.511 59.2272L360.045 58.8334C369.126 51.9971 371.734 39.2538 365.717 29.3144C359.369 18.7449 345.622 15.3583 335.049 21.7693Z" fill="#B30B00"/>
</g>
<defs>
<clipPath id="clip0_588_5182">
<rect width="369" height="357" fill="white"/>
</clipPath>
</defs>
</svg>
